<svg width="30" height="30" viewBox="0 0 30 30" fill="none" xmlns="http://www.w3.org/2000/svg">
<path d="M12.1397 25.0106C11.2451 25.2444 9.57626 24.7983 8.66603 24.641L4.77391 24.1475C3.96078 24.0834 3.13282 24.0655 2.83426 23.0843C2.56508 22.1997 3.12336 19.4215 3.38372 18.5726L3.63995 17.7769C3.7838 17.3853 3.95419 16.9903 4.0373 16.5798L5.15433 9.94214C5.17572 9.77998 5.16857 9.61331 5.16872 9.44995L5.16831 5.64687C5.16845 5.55075 5.15173 5.42067 5.19878 5.33427L5.26051 5.22974C5.51926 4.84982 6.8706 4.93449 7.25222 5.00509L8.45568 5.26797C9.09752 5.37801 10.0918 5.45966 10.7617 5.46007L13.5179 5.4577C13.667 5.45594 13.8064 5.42752 13.9524 5.41868C14.3333 5.39556 14.7035 5.42483 15.082 5.44639L15.5574 5.47235C15.6923 5.48562 15.827 5.50642 15.9624 5.51225L17.9695 5.54535L20.3904 5.50888C20.9279 5.47695 21.4769 5.38115 21.9999 5.25452C22.4998 5.1335 22.94 4.9646 23.4599 4.94325C23.8228 4.9373 24.6467 4.92268 24.7792 5.32528L24.7858 5.34693C24.8334 5.44747 24.825 5.53888 24.8252 5.64892L24.8257 8.9812C24.8259 9.61501 24.8269 9.91944 24.9345 10.5427L25.0747 11.4151C25.118 11.7008 25.1799 11.9845 25.2275 12.2695L25.2862 12.6002C25.3147 12.7691 25.3413 12.9384 25.3741 13.1067L25.5766 14.2385C25.611 14.4077 25.6359 14.5839 25.6611 14.755L25.8725 15.9328C25.9838 16.5966 26.0358 16.8556 26.2779 17.4905L26.6017 18.4793C26.6413 18.6104 26.6882 18.7488 26.7117 18.8841L26.7702 19.1189C26.8078 19.3457 26.8863 19.5711 26.9271 19.7991L27.1384 21.5827C27.1439 21.6347 27.1618 21.6834 27.1656 21.7361L27.1877 22.6038C27.188 22.7309 27.2056 22.8954 27.1692 23.0166L27.1099 23.2107C26.7743 24.0477 26.0648 24.0763 25.3196 24.1485L24.3821 24.2646L21.3381 24.7953C20.8017 24.8829 18.3912 25.2089 17.9127 25.0297L17.761 24.9747C17.3413 24.7968 17.2371 24.4588 17.0811 24.0727L16.3001 22.3202C16.095 21.9325 15.8883 21.5719 15.7409 21.1557L15.246 19.5693C15.1652 19.2962 15.1025 19.0211 14.9925 18.7577C14.9268 18.8774 14.9027 19.0228 14.8657 19.1531L14.2097 21.2579C14.0562 21.6596 13.856 22.0431 13.6637 22.427L13.3186 23.1537C13.1282 23.5514 12.951 23.9345 12.8318 24.3606C12.738 24.6959 12.4584 24.8959 12.1397 25.0106ZM6.51242 5.82198L6.035 5.86182L6.03324 6.85241L7.12721 7.0298L10.4849 7.3286L11.7112 7.36472C11.8225 7.37506 11.9291 7.39217 12.0414 7.39387L14.7361 7.39938C14.8122 7.40108 14.8873 7.41391 14.9632 7.4188L20.4524 7.44719L20.979 7.40058C21.784 7.35461 22.8897 7.27437 23.636 6.92828C23.951 6.7876 23.9373 6.86723 23.9359 6.52701L23.9329 6.08667C23.9319 6.01466 23.9389 5.92639 23.918 5.85807C23.424 5.77856 23.112 5.8666 22.6389 6.00801C21.6796 6.29477 20.6977 6.44272 19.6944 6.44506L17.7848 6.44275C17.66 6.43996 17.5377 6.41764 17.4129 6.41465L16.7869 6.40827C16.676 6.40334 16.5666 6.38301 16.4546 6.379L13.7363 6.32257L12.9805 6.37176L9.90465 6.30948C9.20463 6.27051 8.5032 6.16803 7.81364 6.04428C7.39528 5.96922 6.93966 5.79452 6.51242 5.82198ZM6.05099 7.75501L6.03951 9.09329L23.9461 9.09804L23.9355 8.54143L23.9091 7.77271C23.4155 8.0505 22.5527 8.15102 22.0036 8.21257L20.4704 8.32202C20.2997 8.33055 20.1295 8.35929 19.9588 8.36483L15.8335 8.3636C15.646 8.35955 15.4648 8.3181 15.2744 8.3154L12.5175 8.25901L9.85818 8.17422C8.58391 8.08812 7.30929 7.98051 6.05099 7.75501ZM14.7423 10.0049L10.2055 10.0093C10.2136 10.1641 10.2521 10.3224 10.2835 10.4739L10.8172 13.118C11.3245 15.1718 12.5611 16.0487 14.3288 17.0803L15.0179 17.5147L15.1878 17.4028L17.0112 16.2195C18.4996 15.162 18.9587 14.1077 19.3186 12.4369L19.7219 10.3592C19.7428 10.2451 19.7756 10.1281 19.7804 10.0121L14.7423 10.0049ZM6.05205 10.0054C6.02844 10.1285 6.02512 10.2505 6.00447 10.3713L4.99411 16.343C4.89192 16.9658 4.72033 17.4009 4.51247 17.9959L4.17292 19.0501C4.07219 19.3795 3.98981 19.7457 3.93198 20.0864L3.80173 20.8381C4.14837 20.9105 4.50643 20.9432 4.85677 20.9957L8.35426 21.4654L9.72485 21.7019L12.1029 22.3158L12.6455 22.4613L13.2216 21.2789C13.6011 20.4024 14.0169 19.0169 14.2183 18.0608C13.8717 17.8839 13.5362 17.6608 13.2077 17.4517C10.9669 16.0256 10.3074 15.0739 9.74381 12.3684L9.33113 10.2375C9.31979 10.1682 9.32102 10.0707 9.29114 10.0081L6.05205 10.0054ZM20.7229 10.0068C20.642 10.2998 20.5972 10.6032 20.5442 10.8969L20.2238 12.4778C20.1132 12.9766 20.0315 13.4913 19.8619 13.9749C19.1993 15.8642 17.6065 17.0549 15.9243 17.9965L15.7519 18.0845L16.1159 19.342C16.121 19.3677 16.1286 19.3885 16.1372 19.4129L16.2361 19.7967C16.3007 20.0807 16.3851 20.376 16.4942 20.6472L16.6513 21.0606C16.7726 21.3414 17.1945 22.2143 17.396 22.4544L19.9217 21.7785C20.1007 21.7367 20.2842 21.6923 20.4667 21.6698C20.6724 21.6179 20.884 21.5899 21.0935 21.5595L26.1958 20.8418L25.6711 18.4679C25.5177 17.9535 25.3042 17.4624 25.1721 16.9412C25.0771 16.5661 25.0201 16.1828 24.9534 15.8023L24.0748 10.763C24.0286 10.5105 23.98 10.2664 23.9586 10.01L20.7229 10.0068ZM3.69301 21.7459C3.66661 21.897 3.63875 22.7458 3.70578 22.8665L3.71709 22.8876C3.89554 23.2079 4.1605 23.1967 4.47183 23.2226L8.79582 23.7822C9.1746 23.8502 11.6143 24.3618 11.9087 24.1513C11.9487 24.1227 11.9857 23.9954 12.0058 23.9454L12.2572 23.2707C11.3428 23.0318 10.426 22.7579 9.49915 22.574L4.39431 21.84C4.16079 21.807 3.92841 21.7635 3.69301 21.7459ZM26.2549 21.7592L24.0452 22.0701C22.7081 22.2501 21.3592 22.3957 20.0388 22.6783L18.9073 22.9733C18.5219 23.0768 18.1143 23.1668 17.7382 23.2986C17.7711 23.4622 17.9333 23.8436 18.017 24.0032C18.1165 24.2591 18.243 24.177 18.4898 24.1764C19.3264 24.1744 20.1281 24.0517 20.9544 23.926L24.0598 23.3942L25.447 23.2253C26.3305 23.1294 26.3416 23.0188 26.2869 22.1819L26.2549 21.7592Z" fill="black"/>
</svg>
