<svg width="30" height="30" viewBox="0 0 30 30" fill="none" xmlns="http://www.w3.org/2000/svg">
<path d="M27.6563 16.1647L28.3228 17.5373C28.6909 18.3167 28.7655 18.2822 28.6056 19.1487C27.9854 22.5075 25.8028 25.1121 22.3602 25.6365C22.2591 25.6519 22.1526 25.6507 22.0531 25.6714L21.878 25.6962C20.4184 25.8223 18.0325 25.2649 16.8385 24.5225C16.2277 24.1426 15.7054 23.6353 15.1573 23.1732L13.5199 24.3708C11.6593 25.5173 9.20762 26.0286 7.05163 25.5285C3.9009 24.7976 1.75461 22.0331 1.34969 18.904C1.32715 18.7299 1.26564 18.5331 1.31148 18.3561L1.31624 18.3394C1.36221 18.174 1.44492 18.0167 1.51715 17.8616L2.73041 15.3596L3.05126 14.7959C3.76355 13.4569 4.28885 12.0864 4.49726 10.5749L4.56919 10.0158C4.67413 8.84713 4.72982 7.63752 4.55583 6.47417C4.44409 5.72707 3.95026 4.47006 5.1785 4.31183C5.29115 4.29715 5.41446 4.3069 5.5281 4.3067L6.81485 4.30526C7.36071 4.30529 7.75402 4.51087 7.82732 5.12522C7.85211 5.33306 7.83772 5.54719 7.8606 5.7564L7.95301 6.83438L7.95764 8.26635C7.95766 8.62412 7.97996 8.99751 7.9441 9.35259L7.64255 11.8064C7.63496 11.891 7.61647 11.9743 7.61132 12.0591L7.56714 13.8572C7.56761 13.9242 7.54862 14.1052 7.57569 14.1522C7.6567 14.2928 9.56633 15.1549 9.86952 15.3145L10.7417 15.8277C12.3435 16.8306 13.9769 18.3111 14.9184 19.9358C15.2577 20.5214 15.1517 20.5969 15.3642 20.0917C16.2206 18.056 17.807 16.594 19.6882 15.5121L22.1337 14.2674C22.3743 14.1284 22.4542 14.1872 22.4547 13.9376L22.4549 13.6023C22.4548 12.8878 22.4479 12.1801 22.3637 11.4693L22.1106 9.70811C22.0759 9.41941 22.0409 9.13682 22.0398 8.84549L22.0443 6.84038L22.1417 5.64226C22.2008 4.83976 22.2121 4.30857 23.1407 4.30594L24.5153 4.3057C24.8804 4.30641 25.1668 4.30251 25.4201 4.62636L25.4369 4.64827C25.7982 5.11356 25.5922 5.65342 25.5033 6.17388C25.4221 6.64931 25.359 7.14688 25.3454 7.62894L25.3495 9.053L25.547 10.9126L25.7125 11.7738C25.7178 11.8029 25.7221 11.8274 25.7317 11.8556L25.966 12.6311C26.1574 13.1779 26.3737 13.7143 26.6386 14.2309L27.6563 16.1647ZM5.39641 5.35034C5.40046 5.41198 5.40488 5.46255 5.42351 5.51845C5.54606 5.88615 5.60275 6.75993 5.62865 7.148L5.66322 7.56721C5.7055 8.50438 5.65042 9.45507 5.53654 10.3852L5.32965 11.6926C5.32344 11.7318 5.30146 11.8099 5.31008 11.846C5.36325 12.0691 6.31613 13.2174 6.5157 13.316L6.53307 13.324C6.54652 13.2986 6.54749 13.2913 6.54904 13.2637C6.57705 12.8212 6.56852 12.451 6.60725 12.0012L6.93415 8.83318C6.96951 8.26611 6.95431 7.71237 6.93119 7.1439L6.82259 5.34897L5.39641 5.35034ZM23.1924 5.34923C23.1364 5.75833 23.1052 6.29341 23.0813 6.71971L23.0684 7.98296C23.0684 8.33511 23.0523 8.70196 23.082 9.05268L23.466 12.7217C23.4705 12.9289 23.4443 13.1602 23.4792 13.3637L24.1739 12.611L24.5324 12.1571C24.5981 12.0679 24.6764 11.97 24.7181 11.8668C24.6067 11.4149 24.54 10.9595 24.4817 10.4984L24.3329 8.78754C24.3186 8.28372 24.4109 5.81467 24.6254 5.35102L23.1924 5.34923ZM4.93727 13.0992C4.87141 13.2494 4.82348 13.4082 4.76592 13.562L4.50348 14.1926L2.87696 17.4078L2.55577 18.1621C2.49381 18.3233 2.46217 18.5166 2.34272 18.647C2.33203 18.9667 2.54164 19.7457 2.63651 20.0459L2.99017 20.9449C3.05053 21.1071 3.14893 21.2627 3.22751 21.4167C3.92838 22.7908 5.39911 23.9474 6.8479 24.4034C8.27331 24.8521 10.2489 24.7127 11.6359 24.1097C12.5219 23.7768 14.116 22.7356 14.8041 22.0378C14.6158 21.6246 14.4541 21.2043 14.2437 20.8004C13.6728 19.7042 12.8309 18.7582 11.8944 17.9606L11.4037 17.5737C10.7762 17.0653 10.1216 16.592 9.40089 16.2227C7.80892 15.407 6.57761 14.991 5.35657 13.612C5.21041 13.4469 5.0888 13.2576 4.93727 13.0992ZM25.075 13.1512C24.4173 13.9866 23.6421 14.6186 22.715 15.1325L20.7714 16.1164C18.8537 17.1282 17.3038 18.5355 16.3471 20.522C16.0706 21.0961 15.9342 21.7006 15.7193 22.2926L16.4297 22.9131C17.3132 23.6972 17.5959 23.8523 18.7418 24.2294C19.2995 24.396 19.8709 24.5257 20.4481 24.6028C23.8246 25.0537 26.5106 22.9408 27.4462 19.7408L27.6705 18.6033C27.6827 18.5263 27.6437 18.4743 27.6127 18.4079L25.7292 14.6918C25.4853 14.1981 25.2214 13.6839 25.075 13.1512Z" fill="black"/>
</svg>
