<svg width="30" height="30" viewBox="0 0 30 30" fill="none" xmlns="http://www.w3.org/2000/svg">
<path d="M20.4454 28.7737C19.9604 28.8097 19.4936 28.7422 19.0595 28.5172C18.6842 28.3228 18.2691 28.0484 17.8282 28.2622L17.3758 28.5026C15.6149 29.3616 14.9384 27.9188 13.9786 28.2631C13.7312 28.3518 13.522 28.5097 13.2785 28.6061C12.6193 28.8673 11.7526 28.839 11.1057 28.5491C10.871 28.4439 10.6674 28.284 10.4315 28.1831C9.74092 27.8878 9.37591 28.303 8.77427 28.5354C8.0985 28.7965 7.21597 28.7835 6.55435 28.4906L6.13022 28.2854C5.57429 28.0194 5.53561 28.0023 5.6223 27.4143C5.71353 26.7955 5.87804 26.1961 6.01476 25.5874L7.46719 19.538L8.38242 16.7245L9.46687 14.0651L11.1235 10.3944C11.2506 10.0665 11.2457 10.1538 11.1635 9.81717L10.2687 6.56278C10.2241 6.41495 10.1559 6.24025 10.1489 6.08624L10.1426 1.60142C10.1416 1.31205 10.1754 1.16771 10.4805 1.05604C11.0747 1.02144 11.9526 1.65684 12.2877 2.09253C12.4223 2.26751 12.5249 2.45996 12.6439 2.6447C13.5847 4.1046 15.5915 4.23854 16.5989 2.79081C17.1943 1.93521 17.5252 1.36069 18.6872 1.09936C18.8949 1.05264 19.0822 1.067 19.2063 1.27199L19.2166 1.28934C19.308 1.43552 19.26 1.64632 19.2599 1.81063L19.2533 5.98932C19.2502 6.08176 19.2549 6.19721 19.2125 6.2801L19.1961 6.31308C19.151 6.41477 19.13 6.53636 19.0957 6.64335L18.2401 9.99178C18.2055 10.1628 18.2608 10.1795 18.3371 10.3348L21.411 17.5106L22.2543 19.8196C22.3376 20.124 22.4634 20.4337 22.5678 20.7332L22.7232 21.2332C22.7676 21.4137 22.8449 21.5887 22.8964 21.7679L23.4273 23.552C23.4413 23.6236 23.4704 23.6881 23.4852 23.7594L23.837 25.0329C23.8907 25.3072 23.9861 25.5817 24.0527 25.8548L24.1357 26.2243C24.2487 26.6595 24.4011 27.119 24.4352 27.5666C24.4756 28.0966 24.1357 28.219 23.6837 28.2235L22.3402 28.2265C21.9724 28.2276 22.0226 28.2206 21.7016 28.3921C21.2895 28.6124 20.9176 28.7502 20.4454 28.7737ZM10.8896 1.92986L10.883 4.50834C10.883 5.09196 10.7969 5.73148 10.9565 6.29911L11.5493 8.38971C11.5542 8.41159 11.5607 8.42967 11.5678 8.45061L11.6632 8.81003L17.7389 8.80429C17.7774 8.71889 17.7865 8.63214 17.8111 8.54296L18.4582 6.208C18.5062 5.83845 18.482 5.44657 18.4828 5.07424L18.4815 2.26535C18.4812 2.1735 18.4963 2.04574 18.4748 1.95889L18.4552 1.97468C18.4051 2.01289 18.3381 2.01781 18.283 2.04793C17.629 2.40599 17.5074 2.82732 17.0925 3.36192C15.7079 5.1459 13.1819 4.85674 12.0062 3.03327C11.5711 2.35851 11.6157 2.36953 10.8896 1.92986ZM11.8612 9.54769C11.8736 9.67792 11.9161 9.8721 11.9645 10.0005L17.5121 9.99989L17.5187 9.94525L17.5759 9.5532L11.8612 9.54769ZM11.7664 10.772C11.656 10.9928 11.5775 11.2453 11.4842 11.4735L10.2665 14.0816L9.09893 16.9171L8.05529 20.1825L6.6842 25.9872C6.87328 26.1754 7.21236 26.2877 7.46596 26.3541C8.03804 26.5037 8.39393 26.181 8.87681 25.9729C9.61418 25.6551 10.5168 25.6952 11.2277 26.0604C11.826 26.3677 12.0808 26.6046 12.8539 26.3509C13.0507 26.2863 13.2198 26.1508 13.4023 26.0561C13.9537 25.7697 14.6824 25.7767 15.2376 26.0493C15.8485 26.3493 16.2136 26.6582 16.9621 26.2339C17.1064 26.1521 17.243 26.0524 17.3985 25.9922C17.9687 25.7627 18.6096 25.814 19.1525 26.0882C19.3809 26.2035 19.5911 26.3817 19.8485 26.4284C20.3636 26.522 20.5995 26.3977 21.0277 26.1514C21.7996 25.7074 22.5013 25.87 23.3116 26.0127C23.2603 25.7219 23.1764 25.4376 23.1041 25.1516L22.4543 22.8433L20.6071 17.4805L17.8073 10.9736C17.7784 10.9056 17.759 10.8327 17.7179 10.771L11.7664 10.772ZM9.8044 26.5201C9.08932 26.572 8.83002 26.9573 8.23561 27.0939C7.64522 27.2296 7.01757 27.0579 6.50572 26.7598L6.36797 27.3833C6.35804 27.4329 6.32774 27.5018 6.33328 27.5504C6.53253 27.6516 6.7263 27.7469 6.93451 27.8291L7.24793 27.9367C7.53114 28.0481 8.32321 27.9224 8.58079 27.8043L9.1478 27.511C10.0808 27.0721 10.4948 27.4191 11.2666 27.7944C11.6845 27.9975 12.1742 28.0815 12.6371 28.0111C13.1235 27.937 13.5134 27.5738 13.9871 27.4904C15.1254 27.2901 15.4358 28.0912 16.4591 28.0088C17.37 27.9354 17.7627 26.9602 19.1388 27.7044C19.3585 27.8232 19.5695 27.968 19.8201 28.0112L19.8625 28.0183C20.7361 28.114 21.0018 27.8966 21.7631 27.5285C21.9161 27.4546 22.1614 27.4849 22.3315 27.4843L23.2173 27.4829C23.3694 27.4828 23.5321 27.4942 23.6825 27.4779L23.5868 27.012C23.5712 26.9417 23.5623 26.8584 23.5315 26.7934C22.5441 26.6666 22.0558 26.3873 21.1725 26.9357C20.7567 27.1938 20.2706 27.2427 19.7946 27.1817C19.404 27.1316 19.1367 26.9034 18.7992 26.7353C17.6305 26.1531 17.052 27.6616 15.4825 27.0096C14.9148 26.7738 14.5352 26.3989 13.8263 26.6894C13.6566 26.759 13.5071 26.8686 13.3446 26.9529C12.7387 27.2671 11.9885 27.269 11.3744 26.9835C10.8627 26.7458 10.4109 26.4091 9.8044 26.5201Z" fill="black"/>
</svg>
