<svg width="30" height="30" viewBox="0 0 30 30" fill="none" xmlns="http://www.w3.org/2000/svg">
<path d="M23.7643 26.2967C22.9103 26.9141 22.159 26.9563 21.186 27.0154C20.586 27.0518 19.9538 27.2465 19.4032 27.4749C18.5721 27.8197 17.8349 28.2117 16.9265 27.9588C16.5247 27.8469 16.4118 27.886 15.9937 27.8856L14.1036 27.8847C13.7326 27.8845 13.3751 27.838 13.0158 27.9389C11.8185 28.2751 11.0697 27.6003 9.94685 27.2567C9.56339 27.1394 9.18027 27.0594 8.78125 27.0231L8.26615 26.9971C6.72871 26.8792 5.14627 25.8504 4.70811 24.317C4.63981 24.078 4.73257 24.1246 4.49989 24.0522C3.43809 23.7216 3.00127 22.9459 3.00098 21.9044L3.0015 15.1423C3.002 14.3949 3.23312 13.8363 3.93991 13.4642C4.07705 13.392 4.23722 13.3714 4.36284 13.2759C4.81691 12.9306 5.07851 12.2181 5.31209 11.7192C5.45831 11.4069 5.61563 11.0956 5.72793 10.769C6.21394 9.35522 6.3076 7.27587 5.57831 5.91849C5.40229 5.59086 5.2801 5.3496 5.33913 4.95826L5.34253 4.93705C5.45872 4.11486 6.24871 3.82183 6.89392 3.49874L9.33074 2.23879C9.60763 2.08981 9.86096 1.93081 10.176 1.88005C10.5488 1.86355 10.9483 2.02533 11.1012 2.39384L11.1085 2.41335C11.1325 2.4714 11.1521 2.52473 11.1647 2.58668L11.1689 2.60794C11.2197 2.85957 11.1561 3.12861 11.2021 3.3803L11.3691 4.20752C11.5699 5.21868 12.3055 6.33955 13.0722 6.98973C13.3345 7.21218 13.6409 7.39057 13.8903 7.62483C14.3801 7.37739 15.5904 7.35363 16.0583 7.64865L16.0743 7.65887C17.7003 6.53967 18.6984 5.03706 18.7885 3.00216C18.7952 2.85127 18.7667 2.63942 18.8271 2.50326C19.2891 1.46215 20.0973 1.95371 20.8182 2.33919L23.2611 3.58637C23.8126 3.85748 24.3814 4.07871 24.5491 4.74597L24.5631 4.79613C24.7861 5.44951 24.4416 5.78062 24.2634 6.29012C23.8279 7.53541 23.7482 9.46769 24.082 10.7598C24.3353 11.7405 24.6568 12.7105 25.5836 13.2585C25.7361 13.3486 25.9074 13.4038 26.0666 13.4802C27.09 13.9708 26.9401 14.9328 26.9407 15.8514L26.9425 21.8547C26.9425 22.1029 26.9558 22.3464 26.8983 22.5882C26.7428 23.2421 26.147 23.9541 25.4559 24.0693C25.3306 24.0902 25.3614 24.1253 25.3208 24.2497C25.0452 25.0951 24.5008 25.796 23.7643 26.2967ZM10.238 2.8057C10.0801 2.84852 9.91483 2.94908 9.77198 3.02999L7.48583 4.21245C7.11906 4.39801 6.73108 4.56966 6.37929 4.7811C6.0637 4.97082 6.24628 5.27285 6.35816 5.47904C6.46331 5.6729 6.557 5.88893 6.61375 6.10206L6.74333 6.56621C6.76375 6.68077 6.80017 6.80033 6.82703 6.91458C7.26446 8.77406 6.81221 10.736 5.96063 12.406C5.62141 13.0714 5.40344 13.7244 4.71508 14.1136C4.3634 14.3124 3.90628 14.3587 3.89491 14.8657L3.89228 21.5161C3.89242 22.1191 3.82311 22.6989 4.43084 23.0424L4.45589 23.0567C4.99202 23.3598 5.34962 23.0904 5.87793 22.9307C6.18795 22.837 6.49943 22.7803 6.81602 22.7173L6.81733 22.7164C8.28101 22.4579 9.78276 22.6772 11.1485 23.2404C11.8565 23.5325 12.4054 23.7332 13.1718 23.7309L13.1742 21.7321C13.17 21.5856 13.1473 21.4418 13.137 21.2958L13.1244 9.22089C13.1245 9.06316 13.1156 8.89886 13.1295 8.74192C13.1876 8.08318 13.5404 8.48991 12.7645 7.89691C11.3208 6.79368 10.3884 4.96245 10.3203 3.1558C10.3173 3.07623 10.333 2.85469 10.2755 2.80067L10.238 2.8057ZM19.686 2.82035C19.6741 3.05481 19.6831 3.29249 19.6419 3.524L19.4921 4.36494C19.0949 6.02539 18.1595 7.20278 16.8301 8.20028C16.7989 8.22372 16.6685 8.3078 16.6867 8.34436C16.807 8.58606 16.8063 8.81264 16.8032 9.07628L16.8006 21.2709C16.8006 21.5407 16.7791 23.68 16.8097 23.7296C18.1086 23.7419 18.5907 23.2506 19.7231 22.915C20.5496 22.6702 21.486 22.5711 22.3507 22.6353L23.1459 22.7334C23.5527 22.793 23.9646 22.9003 24.3573 23.022L24.6953 23.1422C25.334 23.3836 25.983 22.8762 26.0715 22.2515C26.088 22.1356 26.0784 22.0089 26.0783 21.8914L26.0751 15.3958C26.0741 14.2643 25.9371 14.496 25.1291 14.0354C22.8674 12.7462 22.5754 8.28878 23.4238 5.9951L23.592 5.59095C23.6375 5.49506 23.7173 5.398 23.7382 5.29379C23.8481 4.74603 23.2113 4.56626 22.8285 4.37929L20.0387 2.94354C19.965 2.90801 19.7873 2.80982 19.7107 2.81437L19.686 2.82035ZM14.4343 8.37949C14.2666 8.43764 14.1399 8.52846 14.049 8.6833L14.0263 8.7307C13.9943 8.80271 13.9955 8.8821 13.9938 8.95948L13.9941 20.3075C13.9948 20.6722 14.0462 20.9391 14.0476 21.2851L14.0475 26.3025C14.0377 26.5388 13.947 26.7954 13.9378 26.9689L15.4795 26.9691C15.6585 26.9717 15.8508 26.9884 16.0284 26.9721L15.9621 26.7705C15.9212 26.6486 15.9341 26.4983 15.9336 26.371L15.9342 9.26387C15.9342 8.60897 15.9019 8.37826 15.2291 8.37837L14.4343 8.37949ZM7.65467 23.5442C6.90051 23.5841 6.22773 23.7533 5.51781 24.0006C5.82186 25.1083 7.05353 25.9611 8.16534 26.0814C8.35229 26.1016 8.54242 26.098 8.73016 26.1082C9.65854 26.1586 10.4993 26.514 11.3559 26.846C11.6732 26.9792 12.08 27.1559 12.4278 27.14L12.5174 27.1319C13.0395 27.0963 13.1752 26.6043 13.1769 26.1764L13.1774 25.5565C13.1774 25.2532 13.1945 24.9383 13.1723 24.6363L12.5347 24.5981C11.8363 24.5314 11.2024 24.2251 10.5585 23.9704C9.60713 23.5941 8.66348 23.5103 7.65467 23.5442ZM21.5978 23.5439C20.3342 23.5664 19.7663 23.8957 18.6051 24.3275C18.261 24.4555 17.9208 24.5302 17.5607 24.5947C17.3756 24.6279 16.9198 24.5768 16.7908 24.6336C16.818 25.1124 16.8004 25.5978 16.8005 26.0775C16.8005 26.4491 16.7433 26.7301 17.0651 26.9959L17.0832 27.0112C17.1531 27.0684 17.2541 27.116 17.3434 27.1311L17.3629 27.1348C17.797 27.2079 18.2458 26.9772 18.6361 26.8189L19.1563 26.6122C19.6995 26.4046 20.2543 26.2408 20.8298 26.1485C21.1709 26.0938 21.5288 26.1184 21.8728 26.0691C22.9115 25.92 23.9017 25.2973 24.3373 24.318L24.4573 24.0315C23.8792 23.6376 22.28 23.5402 21.5978 23.5439Z" fill="black"/>
</svg>
