<svg width="30" height="30" viewBox="0 0 30 30" fill="none" xmlns="http://www.w3.org/2000/svg">
<path d="M12.6261 22.0065L9.18473 21.1092L7.74974 20.6285C7.40017 20.5022 7.38877 20.6644 7.01125 20.7864C5.9437 21.1313 4.79084 20.8367 3.8803 20.2241C3.17037 19.7465 2.83676 19.2022 2.93755 18.3002C3.02125 17.5511 3.5229 17.3716 4.08687 17.0269L8.35449 14.5443C8.45571 14.4869 9.34947 13.9984 9.36945 13.9615C9.38304 13.9364 9.38969 13.8816 9.39725 13.8524L9.66031 13.0041C10.6437 10.299 13.0127 8.37041 15.8199 7.82479C16.3753 7.71683 16.9351 7.68232 17.4985 7.65202C21.0467 7.61423 25.2031 9.20678 26.6267 12.7085C26.7562 13.0273 26.8079 13.2164 26.8991 13.5367L26.9044 13.555C27.0506 14.0689 27.0699 14.7816 27.0697 15.3101L27.0606 18.2741C27.0582 18.3152 27.0553 18.369 27.0316 18.4041L27.0139 18.4279C26.8478 18.6637 26.6485 18.611 26.3948 18.5807L25.6565 18.4755C25.4562 18.4469 25.4836 18.4581 25.3181 18.5743L23.6094 19.7443C21.5032 21.0853 19.0171 22.1726 16.493 22.3146L14.8927 22.3144C14.1382 22.2726 13.368 22.1419 12.6261 22.0065ZM17.7057 8.47849C14.712 8.47585 11.9125 9.96109 10.6635 12.7297C10.6335 12.7964 10.6248 12.9013 10.5725 12.9507L11.8232 12.956C11.9584 12.9628 12.0919 12.989 12.2268 13.0003L13.7871 13.1781C15.0507 13.3654 16.3101 13.602 17.5497 13.9157L19.8753 14.5468C19.8968 14.5521 19.89 14.5508 19.916 14.5625L21.638 15.1338L21.3826 12.9201L21.0543 11.1166C20.9493 10.6292 20.8439 10.1358 20.69 9.66085L20.0937 13.4498C20.0464 13.9429 19.2355 13.9128 19.3089 13.3815L20.0425 8.72344C19.5144 8.60315 18.9807 8.51898 18.4394 8.48649L17.7057 8.47849ZM21.4096 9.11883L21.7437 10.4152L22.2888 13.5604C22.3199 13.6932 22.3128 13.8447 22.3314 13.981L22.4737 15.4223C23.1589 15.7277 25.8036 16.3239 26.2643 16.2526L26.2647 15.294C26.264 14.6708 26.2196 14.0665 26.0339 13.4649C25.4339 11.5217 23.6531 9.99533 21.8093 9.26282L21.5368 9.15566C21.51 9.14514 21.4621 9.11868 21.4343 9.11713L21.4096 9.11883ZM10.6151 13.7726L10.2795 13.7822C10.2524 13.845 10.2512 13.9161 10.2449 13.9836C10.3125 14.0234 10.9868 14.0178 11.1221 14.0264L11.7298 14.0784C12.899 14.1635 14.242 14.4284 15.382 14.6706L19.9657 15.8658L23.7227 17.1677C24.4397 17.3907 25.1934 17.5345 25.9301 17.6759L26.2611 17.7122L26.2622 17.0838C25.979 17.0317 25.6831 17.0138 25.3971 16.9704C23.3332 16.6573 21.5719 15.9301 19.5952 15.3131C17.9094 14.7869 16.1688 14.3773 14.4256 14.0981L13.0626 13.8919L10.6151 13.7726ZM9.73651 14.8265C9.64835 14.8347 9.55803 14.826 9.4765 14.8649L6.10551 16.8002C6.89893 16.8381 7.65537 16.9829 8.42679 17.1644L10.6914 17.765C12.0389 18.1638 13.7032 18.6335 15.1201 18.3699L15.3491 18.3327C16.2438 18.1494 16.9467 17.6731 17.6872 17.1684L18.8056 16.3878C18.177 16.1638 17.5247 16.0211 16.8781 15.8608L13.8782 15.2167L11.6369 14.8906C11.0123 14.8276 10.3644 14.7971 9.73651 14.8265ZM19.7985 16.6702L18.118 17.8741C16.8112 18.7736 15.8406 19.2385 14.2632 19.2388C12.3512 19.2392 10.7446 18.5999 8.92018 18.1193L6.59538 17.6635C5.78465 17.5297 4.80713 17.6908 4.0588 17.99C5.00603 18.7272 6.62691 19.3363 7.73784 19.7482C8.00928 19.8488 8.29812 19.9204 8.56367 20.0331L11.9893 21.0351C15.3207 21.82 18.5705 21.6527 21.5933 19.9703L24.432 18.2043L19.7985 16.6702ZM3.78089 18.8307C3.77533 18.9141 3.78461 18.9545 3.8268 19.0259C4.24006 19.7261 5.44243 20.188 6.25302 20.0929C5.97546 19.947 5.68191 19.8282 5.39644 19.6989L3.8844 18.8821C3.85331 18.8635 3.81719 18.8356 3.78089 18.8307Z" fill="black"/>
</svg>
