<svg width="30" height="30" viewBox="0 0 30 30" fill="none" xmlns="http://www.w3.org/2000/svg">
<path d="M15.7253 26.2386L10.7957 26.2385C9.83719 26.2382 9.0075 26.0515 8.25853 25.3863C7.09269 24.3509 7.04315 23.4302 7.04312 22.025L7.03008 19.4435C6.80722 20.1795 6.30484 21.2955 5.94738 21.951C5.37554 22.9995 4.34842 23.5549 3.21557 22.9806L2.7512 22.7273C2.50989 22.6088 2.24561 22.5124 2.01438 22.3781C1.22157 21.9175 0.950809 21.0312 1.26888 20.188C1.35793 19.9519 1.49746 19.729 1.61027 19.5032L4.8779 12.986L6.28963 9.81862C6.75281 8.73384 6.88989 7.75972 8.30262 7.52285C8.50559 7.48884 8.73744 7.51081 8.9446 7.5107L10.635 7.51032C10.6963 7.51026 10.7742 7.51852 10.8331 7.50261L10.805 7.2378C10.5684 5.07419 12.166 3.9704 14.1924 3.77089C14.5654 3.74004 15.1925 3.73989 15.5586 3.76617C16.995 3.86918 18.6186 4.43124 19.1024 5.92535C19.2417 6.35531 19.2314 7.04883 19.1906 7.50454C19.3801 7.53484 19.6101 7.51011 19.8033 7.51014L21.1651 7.5102C21.3415 7.51034 21.5661 7.48603 21.7351 7.53607L22.169 7.65829C22.7712 7.88906 23.0903 8.2994 23.3254 8.87332L24.1603 10.9021L25.6549 14.1107L28.4265 19.591C28.5472 19.8196 28.6936 20.076 28.759 20.3262L28.8342 20.6249C28.8473 20.6756 28.8569 20.7222 28.8613 20.7744L28.8633 20.8008C28.9622 21.9386 28.0204 22.3625 27.1994 22.7802C26.6662 23.0515 26.2888 23.2717 25.6645 23.1947L25.635 23.1909C24.6839 23.0746 24.1771 22.2143 23.8015 21.4269L23.25 20.1901C23.1625 19.9862 23.0853 19.7744 22.9858 19.5762C22.9397 19.8797 22.9676 20.2198 22.9679 20.5279L22.9676 22.1068C22.9672 22.5173 22.9959 22.9114 22.9195 23.3153C22.6511 24.7337 21.6183 25.8558 20.1957 26.1684C19.8762 26.2387 19.5712 26.2382 19.2461 26.2383L15.7253 26.2386ZM14.3983 4.67698C13.4186 4.73628 11.8988 5.2483 11.7166 6.38403C11.6961 6.51179 11.7055 6.65162 11.7056 6.78091L11.7216 7.67326C11.7264 8.2135 11.5893 8.62078 11.381 9.12065C11.023 9.98001 10.6234 10.3786 11.7237 10.7675L12.6659 11.097C12.9943 11.2 13.3575 11.2896 13.6593 11.4564C14.2182 11.7653 14.5254 12.3929 14.5311 13.0133L14.531 24.4166C14.5317 24.5472 14.527 24.6817 14.5528 24.8104C14.6722 25.4057 15.4768 25.4735 15.4862 24.8663L15.4784 12.8042C15.4442 12.1732 14.916 11.6177 14.4997 11.197L13.0364 9.69481C12.5057 9.13237 12.5175 9.3022 12.6529 8.60602C12.7948 7.87629 11.9552 6.40521 12.6638 6.16667L12.6783 6.16169C12.8706 6.10184 13.0942 6.17291 13.1839 6.35748L13.1915 6.37292C13.2265 6.44505 13.2427 6.51724 13.2652 6.59309L13.5004 7.62217C13.5854 7.95384 13.6072 8.40156 13.554 8.73205C13.5124 8.98978 13.9103 9.25658 14.0721 9.4241L15.053 10.4326L16.4672 8.85068C16.4451 8.63394 16.4122 8.42186 16.4229 8.20319C16.4396 7.86123 16.653 6.59033 16.874 6.30621C17.1338 5.97217 17.6299 6.19758 17.6393 6.58928C17.6431 6.74546 17.6296 6.88934 17.585 7.03954L17.4978 7.38507C17.4099 7.73338 17.3211 8.09124 17.3455 8.45376C17.3587 8.65128 17.4502 8.88847 17.4147 9.08209L17.4111 9.10421C17.3827 9.26157 17.2463 9.37658 17.1462 9.49096L15.7995 10.9973C15.6848 11.1136 15.6777 11.0955 15.7747 11.2366L16.0096 11.529L18.2962 10.7593C18.6674 10.6448 19.0697 10.4562 18.9868 9.97565L18.9836 9.95646C18.9487 9.76702 18.8267 9.56558 18.7499 9.38886C18.3628 8.49768 18.2239 8.08406 18.2879 7.13285C18.3985 5.48983 17.4092 4.96515 15.8971 4.75729C15.6271 4.72014 15.3538 4.68569 15.0814 4.67877L14.3983 4.67698ZM8.53998 8.4269C8.29374 8.45373 8.05752 8.52847 7.89536 8.72198L8.35099 9.28535C9.00053 10.1366 9.12126 11.1882 8.96792 12.2153L8.34419 15.1284C8.12666 16.0277 7.95528 16.5264 7.95399 17.4544L7.95425 21.3009C7.95501 21.4058 7.9723 21.509 7.97303 21.6131L9.98209 17.362C10.1962 16.9715 10.6636 17.0739 10.7955 17.461L10.8041 17.4804C10.8932 17.7177 10.6758 18.0342 10.5797 18.2406L8.91258 21.8175C8.70536 22.2217 8.43782 22.5041 7.99647 22.6439L7.96254 22.6527C7.93685 23.0811 8.02559 23.4682 8.21353 23.8509C9.07031 25.5958 10.831 25.3232 12.4451 25.3227L13.2582 25.3221C13.4164 25.3219 13.5796 25.3298 13.7368 25.3132L13.6256 24.6662C13.6061 24.5411 13.6116 24.4098 13.6115 24.2833L13.6114 13.5446C13.6111 13.1183 13.6968 12.6121 13.2939 12.3212L13.1484 12.2374C12.9884 12.1551 12.801 12.1114 12.6303 12.0552L11.7157 11.7426C11.4761 11.6634 11.2226 11.5964 10.9951 11.4871C10.3071 11.1569 9.96103 10.3429 10.1638 9.61676C10.277 9.21182 10.5005 8.83336 10.6352 8.4317L8.53998 8.4269ZM19.4258 8.42666L19.3728 8.43528C19.3728 8.60619 19.7599 9.30604 19.8353 9.55817C20.1552 10.6271 19.5693 11.3287 18.5751 11.6526L16.3397 12.3832C16.3547 12.523 16.3863 12.6468 16.3912 12.7903L16.3899 23.6367C16.3899 24.1907 16.2062 25.0323 16.7931 25.2938L16.8089 25.3013C16.8913 25.3373 17.0269 25.3225 17.1169 25.3226L18.9442 25.3224C20.1574 25.3209 21.1548 25.053 21.7787 23.8703C21.9844 23.4805 22.0459 23.0915 22.047 22.6564C21.4932 22.459 21.2118 22.1327 20.9595 21.6274L19.5142 18.4546C19.4069 18.2305 19.2789 18.0049 19.2016 17.7686L19.1939 17.7461C19.0482 17.2971 19.7216 16.7914 20.0553 17.4267L21.7557 21.1218C21.8332 21.2888 22.0116 21.5195 22.0449 21.6151L22.0436 17.4673C22.0429 16.5081 21.8056 15.7663 21.5822 14.8367L21.3188 13.6648C20.9023 11.7991 20.5915 10.5868 21.8585 9.01861C21.9434 8.91352 22.1617 8.76202 22.0221 8.6335C21.733 8.36745 21.2427 8.42616 20.8864 8.42599L19.4258 8.42666ZM22.5953 9.57281C21.7141 10.619 21.7769 11.5046 22.0617 12.7442L22.2734 13.7472L23.149 17.3309C23.1636 17.4004 23.1963 17.4726 23.2169 17.5416L24.0926 19.818L24.54 20.8375C24.7917 21.5204 25.3845 22.5493 26.2392 22.2116L26.8378 21.9014C27.6512 21.5279 28.1977 21.2775 27.7663 20.3217L24.3354 13.5179L22.7935 10.0069C22.7437 9.89209 22.6908 9.65004 22.5953 9.57281ZM7.40127 9.57639C7.20135 9.91667 7.08996 10.3243 6.92804 10.6861L5.39994 14.0305L2.5192 19.7535C2.29702 20.1985 1.90595 20.6892 2.12293 21.2037L2.13297 21.228C2.23738 21.4659 2.49769 21.5887 2.71856 21.6892L3.19843 21.9149C3.51636 22.0786 3.82998 22.3124 4.20434 22.2704L4.22634 22.2681C4.8056 22.2035 5.09924 21.6104 5.31891 21.1467L5.81356 19.9927L7.06055 16.3404L8.00262 12.4073C8.0947 11.9556 8.17184 11.4709 8.09628 11.0105L8.08913 10.9717C8.00174 10.4898 7.78726 9.98956 7.44897 9.62813L7.40127 9.57639Z" fill="black"/>
</svg>
