<svg width="30" height="30" viewBox="0 0 30 30" fill="none" xmlns="http://www.w3.org/2000/svg">
<path d="M14.5885 16.6733L13.7515 21.3149L12.7808 26.3409C12.7577 26.4532 12.7584 26.709 12.6654 26.7879L12.6505 26.7995C12.4223 26.9801 12.1293 26.8911 11.8713 26.838L9.14069 26.3344C8.88259 26.2831 8.55232 26.3082 8.55273 25.9453C8.55297 25.7292 8.58197 25.5146 8.60345 25.3001L8.86208 21.5319C8.87043 21.3919 8.89911 21.2561 8.90676 21.1159L9.03877 18.4784L9.08559 17.9186L9.33698 13.6002L9.74099 9.2719C9.74916 9.19342 9.77102 9.1166 9.78212 9.03823L10.369 5.20667C10.4143 4.84643 10.397 4.47035 10.3981 4.10736C10.3999 3.55008 10.3146 3.62891 10.7917 3.32314C11.3381 2.97302 11.0798 3.08932 11.7798 3.09164L19.5127 3.07895C19.881 3.03735 20.0213 3.24943 20.0245 3.57287L20.0353 3.90041C20.0588 4.21869 20.1083 4.63368 20.1744 4.93667C20.2337 5.2084 20.2372 5.49094 20.2705 5.76592L20.4157 6.76772C20.4334 6.87682 20.4339 6.98853 20.4499 7.09731L20.5399 7.71114C20.5676 7.93178 20.5858 8.16056 20.6254 8.37905L21.1272 13.0396L21.271 15.414L21.4261 17.7687C21.4295 17.8463 21.4246 17.9259 21.4313 18.0031L21.5571 20.4719C21.5633 20.648 21.5886 20.8182 21.5997 20.9937L21.6218 21.4925C21.6275 21.6307 21.6562 21.7628 21.6638 21.8995L21.6845 22.6357L21.8588 25.6096C21.9031 26.1664 21.98 26.2728 21.3165 26.3752L18.23 26.9165C17.6356 27.0415 17.5879 26.1749 17.5139 25.7842L15.8938 17.4464L15.1747 13.0345C15.1556 13.0617 15.1604 13.1678 15.1557 13.2057L14.5885 16.6733ZM11.3939 3.91602C11.3075 3.92639 11.229 3.94093 11.1778 4.01581L11.1793 4.95914C11.4662 5.07114 11.7213 5.19504 12.0283 5.19603L14.4309 5.19835L14.5223 4.9993C14.916 4.19956 16.2145 4.32006 16.4559 5.091C16.4706 5.13805 16.4762 5.16574 16.5093 5.20441L18.3436 5.19636C18.9759 5.20793 18.7845 5.23605 19.3391 5.03326L19.2173 3.91992L11.3939 3.91602ZM15.4015 5.26254C15.0346 5.47353 15.1523 5.86415 15.5054 5.97688C15.8243 5.99062 15.933 5.2311 15.4015 5.26254ZM11.0976 5.80078L10.6293 8.82782C10.9982 8.71145 11.3165 8.534 11.5947 8.26327C12.0542 7.80694 12.3143 7.28774 12.4711 6.65534L12.5926 6.03477L12.0335 6.03416C11.7342 6.03269 11.3539 5.96305 11.0976 5.80078ZM19.4172 5.91079C19.0733 5.99127 18.8955 6.03184 18.5426 6.0334L17.8953 6.06C17.9271 6.24442 17.9466 6.44379 18.0127 6.62007L18.0646 6.78225C18.2375 7.27755 18.4988 7.69869 18.8711 8.06809C19.1786 8.31668 19.4638 8.48516 19.8238 8.63522C19.7867 8.04135 19.6722 7.45778 19.5877 6.87026L19.4971 6.17774C19.4847 6.09152 19.4816 5.99244 19.4582 5.90927L19.4172 5.91079ZM13.4239 6.03688C13.2018 7.33781 12.8552 8.4191 11.7314 9.21425C11.3945 9.45261 10.9311 9.66674 10.5123 9.67204L9.35951 25.542L11.8526 25.987L12.0336 26.025L13.6337 17.3848L14.6644 11.1549C14.6845 11.0546 14.7354 10.9707 14.7925 10.8879C14.6648 10.4677 14.5769 10.1125 14.5907 9.6721C14.6073 9.14379 14.6601 9.08859 15.0806 9.01769C15.3602 8.97058 15.5332 8.6787 15.613 8.43032L15.6196 8.41093C15.6845 8.21411 15.6536 7.93951 15.6541 7.73133L15.6556 6.78448C15.258 6.76131 14.6275 6.516 14.5042 6.08856L13.4239 6.03688ZM16.4517 6.04558L16.4493 8.22902C16.4479 8.96206 16.0535 9.5042 15.3941 9.76684C15.4229 10.0373 15.461 10.3576 15.552 10.6168L15.7246 11.1808C15.7546 11.2761 15.7536 11.3928 15.7668 11.4925L16.32 15.0001C16.3352 15.0823 16.3341 15.1674 16.3489 15.2492L16.5535 16.3917C16.5748 16.5105 16.5809 16.6296 16.6085 16.7481L16.6616 17.029C16.7164 17.2275 16.7295 17.4475 16.7652 17.6509L17.9603 24.0822C18 24.2589 18.0196 24.4441 18.0697 24.6185L18.362 26.0474L19.7643 25.8011L21.0496 25.5945L20.8129 21.8877L20.7331 19.9293C20.7281 19.8359 20.7103 19.7416 20.7036 19.6477L20.6412 18.579L20.4989 15.6238C20.4941 15.5411 20.4767 15.4602 20.4711 15.3773L20.2793 12.6102L19.9953 9.90249C19.9829 9.77842 19.9868 9.65206 19.9575 9.53018C18.3031 9.18515 17.2403 7.66664 17.0747 6.0469L16.4517 6.04558Z" fill="black"/>
</svg>
