<svg width="30" height="30" viewBox="0 0 30 30" fill="none" xmlns="http://www.w3.org/2000/svg">
<path d="M7.54783 30C6.89281 29.7381 6.97224 29.6121 6.89891 29.0152L6.63731 26.5742L6.63477 24.3333L6.88259 21.4608L7.30669 18.9032L7.93511 15.7247C8.04418 15.2119 7.92248 15.4431 7.86837 15.0865C7.8481 14.9528 7.85976 14.8088 7.85976 14.6737L7.86022 11.3767C7.86031 10.7636 7.89107 10.1452 7.79647 9.5383C7.66282 8.68093 7.14107 7.97517 6.92129 7.14141C6.37956 5.08603 7.45684 3.84653 7.61062 1.9416C7.69672 0.875133 7.68816 0.299903 8.86804 0H12.0068L14.1957 0.450908C14.6566 0.562166 15.5507 0.474363 16.0693 0.407833L16.4879 0.346441C16.6216 0.325075 16.7581 0.284573 16.8901 0.252694L17.5522 0.0931022C17.6516 0.0673154 17.7866 0.0511181 17.8743 0H21.3083C21.7108 0.133523 22.0181 0.342899 22.2146 0.730591L22.2786 0.88476C22.5308 1.4644 22.2793 2.37433 22.4581 3.03703L22.6418 3.6206C22.7042 3.76661 22.7666 3.91154 22.8489 4.04789C23.1859 4.60605 23.4259 5.10645 23.2886 5.77881C23.1986 6.21929 23.0085 6.64002 22.8518 7.06055L22.3837 8.45215C22.2314 8.93965 22.1432 9.43564 22.1424 9.9472L22.1398 14.7308C22.1397 14.8511 22.1457 14.9764 22.1325 15.0959C22.0958 15.4271 21.9238 15.2484 22.1127 15.7099L22.5061 16.9437C22.5108 16.968 22.5177 16.9891 22.5255 17.0125L23.0978 19.7363C23.1261 19.8425 23.1277 19.9531 23.1452 20.061L23.3425 21.7927C23.366 21.9814 23.3765 22.3186 23.3863 22.528L23.3889 26.4345L23.3479 27.2186C23.344 27.2872 23.3292 27.3538 23.3221 27.4219L23.1417 29.1094C23.0579 29.7987 23.033 29.6689 22.5581 30H18.806C18.2149 29.7914 17.9716 29.7079 17.6082 29.1597C16.8392 27.9996 16.7555 26.5442 16.4717 25.2192C16.3156 24.4903 15.7563 22.6711 15.0984 22.2753C14.7369 22.0579 14.5917 22.5151 14.457 22.7387C13.6024 24.1573 13.1543 25.8006 12.849 27.4146L12.721 28.1701C12.6207 28.8573 12.5526 29.598 11.8079 29.8939C11.6935 29.9394 11.5695 29.9575 11.4535 30H7.54783ZM18.0141 0.900879L16.5092 1.26061C15.4574 1.45328 14.3884 1.44252 13.3378 1.23249L11.917 0.902947C11.8793 0.973354 11.8797 1.06459 11.8646 1.14258L11.7305 1.77255C11.5911 2.31387 11.8362 2.5996 12.2625 2.89578C13.7705 3.86165 16.3106 3.91055 17.8088 2.83527C18.1786 2.5698 18.3558 2.32794 18.3011 1.85303C18.2841 1.70456 18.1936 0.875496 18.0141 0.900879ZM8.80004 0.92717C8.5025 1.11265 8.55345 1.34216 8.52072 1.64662C8.43998 2.3985 8.34336 3.12668 8.12193 3.85213L7.88627 4.53527C7.66332 5.24695 7.5229 6.32707 7.8096 7.04877L8.5112 8.7085C8.63911 9.11733 8.71133 9.54773 8.72328 9.97559L8.72387 14.5168C8.71695 15.0621 8.84381 15.0106 9.30567 15.0107L20.9761 15.0103C21.3104 15.0071 21.2624 14.7189 21.2606 14.4573L21.2582 10.9544C21.2586 10.413 21.2226 9.84475 21.2957 9.30776C21.4111 8.46059 21.7132 7.64584 21.9906 6.84082L22.2773 6.08229C22.5948 5.23479 22.3923 5.06936 21.9772 4.31396C21.6531 3.72416 21.5174 3.02291 21.5151 2.35282L21.5132 1.68387C21.512 1.29408 21.4634 0.930817 21.0102 0.926464L19.5808 0.924946C19.4075 0.924914 19.2283 0.914212 19.0559 0.928166L19.1834 1.7572C19.3046 2.31105 18.9478 3.54902 18.6978 4.00907C18.407 4.60304 17.9158 5.15722 17.4114 5.58313C16.8222 6.08071 16.6401 6.05106 16.6391 6.84223L16.6366 10.5678C16.6362 10.6725 16.6451 10.7921 16.6246 10.8946C16.5494 11.2706 16.028 11.3606 15.8093 10.9863L15.7982 10.968C15.7721 10.9235 15.7631 10.882 15.7611 10.8306L15.7606 6.70125C15.7624 5.34557 17.0398 4.96386 17.7119 3.9428C16.6532 4.45292 15.4907 4.58728 14.3278 4.49965C13.8324 4.46232 13.3012 4.33661 12.8338 4.17108L12.2576 3.93457C12.9832 4.98454 14.2376 5.3407 14.2375 6.75592L14.2379 10.3218C14.2377 10.4725 14.2864 10.845 14.2074 10.9691L14.1543 11.0355C13.8683 11.386 13.3793 11.1919 13.3688 10.8691L13.3629 6.99305C13.3624 6.02912 13.0053 5.99558 12.407 5.43249C11.2099 4.30582 10.5684 2.86647 10.9219 1.24313C10.9448 1.13784 10.9792 1.0344 10.9922 0.927328L8.80004 0.92717ZM21.2398 15.9155L8.78044 15.9275C8.73887 16.0565 8.73377 16.1959 8.71104 16.3291L7.911 20.5444L7.53728 23.7891L7.50729 26.468C7.51092 26.5455 7.52806 26.6207 7.53383 26.6977L7.78309 29.0597C7.88393 29.1364 8.22154 29.0672 8.34561 29.0662H10.8976C11.2907 29.0663 11.6694 29.1456 11.7763 28.623L12.5078 25.0377C12.7602 24.2362 13.6288 21.8252 14.445 21.4201C15.5418 20.8758 16.3682 22.2949 16.7176 23.1128C16.8116 23.3329 16.9259 23.5579 16.9873 23.7895L17.3084 24.9036L17.5473 26.1249C17.6851 26.932 17.9908 29.064 19.0279 29.0662L22.2503 29.0769C22.2887 29.0306 22.2873 28.8013 22.2985 28.7256L22.5038 26.6159L22.5152 22.9119C22.5147 22.6849 22.5227 22.4523 22.5011 22.2263L22.3273 20.5536C22.1476 19.2482 21.8759 17.9518 21.5125 16.6847L21.3487 16.1486C21.3272 16.0801 21.3069 15.9741 21.265 15.9163L21.2398 15.9155Z" fill="black"/>
</svg>
