<svg width="30" height="30" viewBox="0 0 30 30" fill="none" xmlns="http://www.w3.org/2000/svg">
<path d="M12.5369 27.4393L11.2426 27.1427C10.1804 26.7967 9.30925 26.2321 8.58459 25.3707C7.97085 24.6412 8.14291 24.648 8.14206 23.7128L8.12565 21.1849L7.82671 23.0591C7.74409 23.5525 7.62579 24.0407 7.49647 24.5237C7.35017 25.0702 7.25199 25.2885 7.25064 25.8704L7.25009 26.7816C7.25018 27.8004 7.05137 27.6428 6.18148 27.6434H4.07088C3.77146 27.6439 3.54831 27.6846 3.36233 27.3921C3.29047 27.279 3.34004 25.4407 3.33184 25.1491C3.3248 24.8977 3.26354 24.6414 3.24274 24.3895L3.20826 23.8768C3.19982 23.7862 3.18298 23.6968 3.17809 23.6057L3.12181 22.617L3.11768 18.1486L3.17196 16.4431C3.18189 16.2423 3.21485 16.0433 3.22101 15.8421C3.23727 15.3106 3.26105 14.8255 3.2934 14.2967L3.36368 13.4242C3.4935 11.9128 3.65179 10.3966 3.99901 8.91682C4.30994 7.59169 4.72095 6.49335 5.9588 5.7701C6.72793 5.32075 7.65336 5.17953 8.50587 4.95896L10.549 4.44752C10.6077 4.43311 11.1008 4.33628 11.1104 4.32902C11.117 4.32404 11.1387 4.21836 11.1422 4.20483C11.2427 3.80844 11.434 3.43458 11.6009 3.06357C11.878 2.44759 11.8468 2.4024 12.4862 2.40433L15.9047 2.40538C16.5002 2.40508 17.0821 2.42273 17.6751 2.36437C17.9752 2.34064 18.1533 2.52421 18.2815 2.77573L18.715 3.8034C18.9067 4.23828 18.7358 4.29357 19.1537 4.38448L21.4548 4.95738C23.5853 5.47054 24.9515 5.70243 25.7226 7.95395C25.8314 8.27153 25.9225 8.59523 25.9925 8.92382L26.1627 9.75571C26.2033 9.94051 26.216 10.1342 26.2506 10.3197L26.5713 12.6526L26.7586 14.8639C26.7858 15.1792 26.8164 15.5609 26.8276 15.8774L26.8771 17.4926C26.8815 17.5838 26.8968 17.6738 26.8995 17.7652L26.8687 22.7061C26.8641 22.7966 26.845 22.8855 26.8401 22.9759L26.6837 24.8143C26.654 25.0382 26.6713 25.2768 26.6713 25.5035L26.6725 26.7715C26.6729 27.0614 26.7493 27.3953 26.4582 27.575L26.3758 27.6218C26.2998 27.6556 26.1954 27.643 26.1131 27.6431L23.2031 27.6435C22.6245 27.6432 22.6132 27.3993 22.6136 26.8621C22.6138 26.6057 22.6502 25.233 22.5869 25.0938C22.536 24.9823 22.5138 24.8756 22.4835 24.7583L22.0539 22.5592L21.8575 21.1756C21.8212 21.5214 21.8399 21.8717 21.8404 22.219L21.8412 24.4426C21.841 24.5642 21.8541 24.6947 21.8069 24.8091L21.7984 24.8289C21.7374 24.983 21.6228 25.1129 21.519 25.2405C20.4082 26.6054 19.0279 27.2144 17.3299 27.483L15.7324 27.6365C14.6671 27.6761 13.5893 27.6078 12.5369 27.4393ZM13.1655 3.24017C13.3558 3.34786 13.5309 3.4937 13.7166 3.6123L14.5205 4.08494C14.6723 4.17644 14.8396 4.29834 15.002 4.36373L16.1515 3.68191L16.8281 3.253L13.1655 3.24017ZM12.2923 3.46596C12.1235 3.76324 11.7911 4.44213 11.8269 4.80169C11.8883 5.41939 12.1851 6.26115 12.7873 6.52918L12.955 6.58523C13.2726 6.67306 13.5209 6.48849 13.7059 6.24465C14.0415 5.8495 14.2927 5.42074 14.5438 4.96921L13.8779 4.63921C13.2958 4.31478 12.7699 3.92982 12.2923 3.46596ZM17.7148 3.48046C17.0069 4.13068 16.3752 4.53108 15.4924 4.9492C15.6363 5.43395 15.9598 5.99202 16.292 6.37869C16.3906 6.49206 16.4956 6.60735 16.6479 6.63685L16.6668 6.64083C17.484 6.80317 18.0461 5.54826 18.1651 4.91659L18.1826 4.79068C18.2299 4.46812 17.8522 3.76224 17.7148 3.48046ZM11.0464 5.13412L8.13934 5.86546C5.94412 6.42401 5.26505 6.78679 4.72783 9.19907L4.51701 10.216L4.161 13.0077L3.95255 16.0237C3.94534 16.1286 3.92407 16.2293 3.91936 16.336L3.86486 18.2456L3.86548 21.8143C3.86917 21.9662 3.89979 22.1146 3.90354 22.2667L3.93603 23.604C3.96178 23.8828 3.95 24.3453 4.0032 24.5578L6.71803 24.5631L7.4941 20.6265C7.8125 18.9535 8.0203 17.5859 7.9589 15.8714L7.9327 15.5492C7.91803 15.2087 7.94817 14.8509 7.90215 14.5135L7.56046 10.7925C7.53304 10.5186 7.49835 10.2502 7.50292 9.9737C7.50945 9.57908 8.02121 9.4284 8.20414 9.80698L8.21202 9.82189C8.25635 9.91095 8.24814 10.0469 8.25875 10.1464L8.31942 10.7409C8.33231 10.8879 8.35985 11.0318 8.36601 11.1799L8.6532 14.3609L8.79336 16.6811C8.79799 16.7513 8.81568 16.817 8.82266 16.886C8.86713 17.3261 8.79972 17.7904 8.88058 18.2216C8.91556 18.4081 8.90126 18.6176 8.90208 18.8075L8.90103 24.0844C8.89502 24.5509 8.8773 24.4978 9.16511 24.8412C9.79789 25.5962 10.6515 26.1431 11.5942 26.4258L12.4498 26.6402C12.6597 26.6975 12.8947 26.7149 13.1103 26.7383L14.3804 26.837C14.4069 26.8382 14.4554 26.8469 14.4774 26.8344L14.4801 7.23729C14.4796 7.0345 14.5108 6.75582 14.4428 6.56683C14.1478 6.89844 13.9282 7.23037 13.4765 7.35492L13.4502 7.3625C12.3954 7.64771 11.4433 6.54641 11.2092 5.61453L11.1075 5.13412C11.0741 5.11994 11.0786 5.12437 11.0464 5.13412ZM18.9094 5.13685C18.8486 5.35136 18.8101 5.56655 18.7368 5.7786C18.4196 6.69641 17.45 7.69883 16.3844 7.39447C15.9117 7.25944 15.4587 6.64157 15.2404 6.22517L15.2289 26.829C17.4781 26.7761 19.4902 26.5901 21.0066 24.6228C21.1022 24.4988 21.09 24.4819 21.0924 24.324L21.0954 19.9169C21.096 19.7558 21.0856 19.5821 21.1148 19.4236C21.1793 19.0747 21.1458 18.6927 21.1637 18.3392L21.2379 17.297C21.2442 17.2132 21.2597 17.1312 21.2626 17.0468L21.2722 15.2614C21.2775 15.0644 21.3085 14.8688 21.3191 14.6718L21.3448 13.8718L21.5154 11.8205C21.5408 11.3727 21.6108 10.9192 21.6692 10.4745C21.6994 10.2447 21.6729 9.90313 21.8679 9.7369L21.9133 9.70104C22.1758 9.49625 22.4811 9.72919 22.4695 10.0951C22.4617 10.3423 22.4195 10.6019 22.384 10.847L22.0659 14.8421L22.0624 16.6832L22.2112 18.9202L22.5882 21.0423C22.6057 21.1295 22.6079 21.2198 22.624 21.3071L22.8818 22.7489C22.8978 22.8316 22.9011 22.9169 22.9174 22.9997L23.1891 24.3578C23.2028 24.4301 23.2013 24.4951 23.2377 24.5605L25.9702 24.56L26.1519 21.9977C26.1633 21.7751 26.1951 21.5582 26.1998 21.3343L26.1944 18.5078C26.1897 18.3877 26.1562 18.2714 26.1526 18.1493L26.1409 17.2532L25.9025 13.6607L25.3318 9.50662C24.7981 6.87761 24.1842 6.41791 21.7803 5.83883L19.7195 5.33853C19.4515 5.27135 19.1729 5.21756 18.9094 5.13685ZM4.09528 25.3553L4.0857 26.3178C4.08576 26.4853 4.07132 26.6688 4.09174 26.8343L6.51119 26.8381L6.51573 25.8065C6.51556 25.6643 6.53284 25.4968 6.50926 25.3588L4.09528 25.3553ZM23.394 25.3615C23.3614 25.6665 23.3617 26.5152 23.3953 26.8184L25.8471 26.8227L25.8786 26.8173C25.8823 26.65 25.9026 25.4246 25.867 25.3609L23.394 25.3615Z" fill="black"/>
<path d="M19.9477 10.8251L17.0037 10.8249C16.8899 10.8248 16.698 10.85 16.5991 10.7951L16.5823 10.7853C16.3413 10.6475 16.2423 10.3296 16.4747 10.1382L16.4944 10.1224C16.6597 9.98636 16.8259 10.0275 17.0293 10.0261L19.9501 10.0246C20.072 10.0245 20.2449 10.0026 20.3569 10.0506C20.6812 10.1896 20.6975 10.6092 20.3941 10.7737C20.2594 10.8467 20.0963 10.8264 19.9477 10.8251Z" fill="black"/>
</svg>
