<svg width="28" height="28" viewBox="0 0 28 28" fill="none" xmlns="http://www.w3.org/2000/svg">
<path d="M18.0637 23.8518C17.5066 23.932 16.9477 23.9441 16.3866 23.96L12.229 23.987C12.1244 23.984 12.0219 23.9645 11.9174 23.9609L11.1785 23.9394C11.052 23.9301 10.9273 23.9049 10.801 23.8973L9.54999 23.7966C8.57412 23.6885 7.84618 23.433 7.56467 22.3309C7.47077 21.9633 7.50733 21.5622 7.50739 21.184L7.50772 14.4314C7.5075 14.2952 7.52751 14.1065 7.48879 13.9757L7.39016 13.5185C7.00935 13.8479 6.84818 13.8804 6.36237 13.7818C5.015 13.5085 3.19932 12.4491 2.66058 11.1475C2.36588 10.4356 2.54205 10.0235 2.98194 9.46831L4.56052 7.65096C5.18686 6.95531 5.6452 6.3806 6.52851 6.00263C7.03306 5.78669 7.55748 5.64596 8.05459 5.40681L9.59596 4.63292C10.2587 4.28809 10.4977 4.09764 11.2545 4.01088C11.3202 3.99756 11.4346 3.99617 11.496 4.02264L11.5119 4.02994C11.7707 4.13784 11.8263 4.43558 11.9807 4.64605C12.8858 5.87961 15.3997 5.81609 16.1271 4.47031C16.2228 4.29326 16.2518 4.11785 16.463 4.03503L16.4833 4.0274C17.0102 3.82451 17.9107 4.42823 18.3483 4.64211L20.2461 5.55534L21.1792 5.90301C22.21 6.28591 22.687 6.79147 23.3878 7.60248L25.0383 9.58663C25.1354 9.70046 25.2634 9.83237 25.3251 9.96922L25.3308 9.98205C25.5698 10.4651 25.3054 11.1125 25.0406 11.5252C24.3937 12.5337 23.3582 13.2308 22.2443 13.6274C21.5946 13.8587 21.1912 14.0209 20.6486 13.565L20.551 13.8562C20.4255 14.1831 20.4924 14.6605 20.4924 15.0075L20.4923 21.5427C20.492 22.1973 20.5078 22.6062 20.0418 23.1556C19.5441 23.7424 18.7761 23.7947 18.0637 23.8518ZM16.7863 4.78277C15.8324 6.74069 12.4599 6.75794 11.3099 5.01585L11.1824 4.79376C11.0839 4.80218 10.9935 4.80915 10.9007 4.8464C10.8485 4.9476 10.9643 5.36081 11.0149 5.48733L11.1188 5.79419C11.2218 6.06448 11.3198 6.34497 11.4722 6.59257C11.8683 7.31505 12.4779 7.92973 13.2821 8.1682C15.1204 8.71327 16.5039 7.14797 16.9717 5.5254L17.1351 4.84571L16.7863 4.78277ZM10.1808 5.19962L8.13495 6.20727C6.99308 6.71589 6.12398 6.7583 5.34917 7.89739C7.35801 8.47428 8.63466 10.2508 8.16375 12.3235C8.11371 12.5437 8.05076 12.7992 7.96406 13.0089L7.97308 13.0184C8.32163 13.4522 8.25743 14.8072 8.25754 15.3336L8.25622 21.1835L9.27412 21.3252L12.1682 21.5032C12.2717 21.5073 12.3731 21.5266 12.477 21.5288L15.7028 21.5295C15.8006 21.5269 15.8963 21.5062 15.994 21.5035L16.7371 21.4959L19.7554 21.2871L19.7556 19.6941L19.7574 14.0953C19.7712 13.7745 19.8636 13.438 19.9899 13.142C20.0397 13.0253 20.0719 13.0282 20.0271 12.9106L19.9404 12.6784C19.7851 12.2313 19.7545 11.9491 19.7545 11.4887C19.7543 9.65121 20.9882 8.50417 22.5669 7.82498C21.8421 6.8088 20.9438 6.6901 19.884 6.2222L17.81 5.20821C17.7648 5.52094 17.6785 5.80403 17.5733 6.10101C16.8955 8.0134 15.1038 9.54482 13.0284 8.88676C11.4559 8.38818 10.4561 6.75365 10.1808 5.19962ZM23.1505 8.53764C22.7623 8.56725 22.4388 8.72877 22.1063 8.91944C21.2804 9.39314 20.7102 10.0115 20.5292 10.9757C20.4289 11.5099 20.4784 12.4899 20.9365 12.8786L20.9393 12.8628C20.9714 12.6924 21.0546 12.5263 21.1435 12.3786C21.7288 11.4374 23.2049 10.3245 24.2375 9.79767L23.3688 8.70963C23.3258 8.65218 23.2868 8.58691 23.2333 8.53873L23.1505 8.53764ZM4.73408 8.56826L3.69515 9.78342C4.57835 10.3145 6.42296 11.472 6.9224 12.4081C6.99412 12.5429 7.05162 12.6904 7.13568 12.8175L7.1412 12.8058C7.21566 12.6521 7.31516 12.5204 7.37734 12.3581C7.69305 11.5335 7.43088 10.4103 6.91324 9.7351C6.42895 9.10349 5.53402 8.61568 4.73408 8.56826ZM3.24119 10.4245C3.23711 10.5106 3.2577 10.5822 3.28155 10.6638L3.30938 10.7458C3.72063 11.7947 5.25771 12.7521 6.36786 13.01C6.12981 12.3668 5.24291 11.699 4.70331 11.3339L3.45362 10.5311C3.40525 10.5023 3.30044 10.4072 3.24119 10.4245ZM24.6299 10.4245C24.4207 10.5381 24.2233 10.7013 24.0219 10.8313C23.2571 11.3252 22.0196 12.0759 21.6931 12.988L21.7316 12.99C22.7091 12.7196 23.9312 11.9514 24.4475 11.0373C24.4942 10.9545 24.752 10.427 24.6299 10.4245ZM8.27837 21.9362C8.25406 21.9738 8.25909 22.0012 8.26661 22.0456L8.34657 22.2989C8.54533 22.8757 8.98682 22.9845 9.52265 23.0374L12.012 23.2262L15.9512 23.2263L16.9899 23.1857C17.2095 23.1721 17.4304 23.1446 17.6515 23.1299L17.9711 23.0931C18.4645 23.0507 19.0834 23.0836 19.4483 22.6939C19.6092 22.5028 19.7114 22.289 19.7484 22.0412C19.4246 22.0386 19.1057 22.1011 18.7834 22.1255L16.8303 22.2494C16.3832 22.2752 15.9299 22.2466 15.4819 22.2589C15.3523 22.2624 15.2258 22.2926 15.0946 22.2951L12.8861 22.2929L10.4528 22.1875C10.3656 22.1823 10.2811 22.1658 10.1945 22.1591L8.91718 22.032C8.70608 22.0035 8.48648 21.9803 8.27837 21.9362Z" fill="black"/>
</svg>
