<svg width="30" height="30" viewBox="0 0 30 30" fill="none" xmlns="http://www.w3.org/2000/svg">
<path d="M20.3649 24.8384L18.5221 25.0684C18.4979 25.0694 18.4365 25.1822 18.4165 25.2089C18.06 25.6845 14.2351 25.5921 13.6525 25.5566C13.2305 25.5309 11.814 25.5334 11.5677 25.1706C11.4769 25.0368 11.5062 25.0558 11.3284 25.0305L8.67454 24.6815C7.1717 24.4384 3.8327 23.8793 3.47089 22.0794L3.43623 21.9046C3.32062 21.3848 3.57794 20.9564 3.72814 20.4801L5.74778 13.9694L7.29516 9.81718L8.2207 7.73262C8.31589 7.55646 8.42194 7.47457 8.42229 7.26574L8.42297 5.47143C8.42309 5.0552 8.28984 4.51348 8.85123 4.42805L20.8219 4.42383C21.8012 4.4243 21.6248 4.75837 21.6256 5.53312L21.6305 7.30758C21.6393 7.50908 21.8973 7.98732 21.9953 8.18918L23.4945 11.8141L25.0069 16.2233L26.005 19.57C26.0634 19.8504 26.2248 20.4486 26.3328 20.7009L26.501 21.1193C26.5771 21.2522 26.5566 21.8546 26.5146 22.0021C26.3468 22.5913 26.0447 22.9757 25.5083 23.282L25.0532 23.5146C24.9311 23.5799 24.8274 23.6693 24.7149 23.7485C24.3497 24.0056 23.9235 24.1126 23.4984 24.2259L21.3282 24.6695C21.0076 24.7256 20.6882 24.799 20.3649 24.8384ZM9.1972 5.26119C9.15791 5.68614 9.18352 6.12463 9.1841 6.54513L9.18709 7.02955C9.18867 7.1006 9.18176 7.19054 9.20273 7.25771L10.5648 7.33409C10.3952 6.53558 10.172 6.18908 10.3644 5.26277L9.1972 5.26119ZM11.1948 5.26354C11.1081 5.53175 11.0606 5.80702 11.0943 6.08654C11.1148 6.25626 11.3087 7.23023 11.453 7.33049L18.5016 7.33277C18.543 7.26908 18.5812 7.20741 18.613 7.1381C18.8437 6.64356 19.0254 5.87341 18.8243 5.33256L18.7975 5.265L11.1948 5.26354ZM19.6161 5.26213L19.6338 5.3499C19.6372 5.37193 19.6415 5.38632 19.6479 5.40694C19.7614 5.77166 19.6237 6.97942 19.4271 7.32659L20.4969 7.2774L20.761 7.26501L20.7569 5.26468L19.6161 5.26213ZM8.95107 8.03479L7.66046 11.1183L7.08996 12.5978L4.42307 20.8668C4.32293 21.1884 4.13367 21.495 4.22853 21.841L4.25686 21.9403C4.38076 22.3701 4.87919 22.7174 5.26406 22.8872C5.44151 22.4305 5.68904 22.0066 5.91164 21.5713L6.5429 20.225C6.93665 19.3358 7.27755 18.4164 7.59102 17.496L8.60062 14.0272L8.83928 12.9153C8.89374 12.6507 8.9279 12.0233 9.42047 12.2249C9.51981 12.2656 9.58816 12.3195 9.63888 12.4147L9.64734 12.4303C9.74566 12.6305 9.59739 13.1605 9.55614 13.3694C9.29757 14.6792 8.92998 15.9738 8.51871 17.2433L8.092 18.5388L7.02914 21.1534L6.47877 22.2634C6.31667 22.5795 6.13913 22.885 6.03595 23.2268C6.7829 23.5236 7.5927 23.6728 8.38122 23.8112L11.4696 24.2314L11.8929 21.233L12.5373 15.7032L12.5578 15.2926C12.5679 15.1839 12.5894 15.0762 12.5952 14.9673L12.6625 13.668C12.6727 13.373 12.5935 12.6582 12.724 12.4312L12.7343 12.4128C12.8937 12.1332 13.3798 12.1602 13.4523 12.4535C13.5497 12.8478 13.4308 13.5277 13.4141 13.9615L13.3993 14.9533L12.753 20.7847L12.2779 24.3083C12.265 24.4082 12.2436 24.5019 12.2432 24.6033C12.5084 24.6532 12.7692 24.6687 13.0372 24.6913L15.0903 24.7548C15.5253 24.7542 15.9695 24.7713 16.4031 24.7448L17.7737 24.5954C17.7863 24.5598 17.7748 24.5176 17.7693 24.4804L17.379 21.8038L16.8394 17.7137L16.597 14.9294L16.531 12.8511C16.5274 12.5906 16.5024 12.3333 16.8019 12.2328L16.8182 12.2271C16.9094 12.1974 17.009 12.2218 17.0912 12.2661L17.1579 12.3098C17.3612 12.4556 17.3294 12.811 17.3301 13.0248L17.3381 13.6891C17.3445 13.8373 17.3798 13.9797 17.3859 14.1277L17.3907 14.7488C17.3972 14.9324 17.4284 15.1093 17.4415 15.2907L17.9934 20.4786L18.4281 23.4669C18.4704 23.7236 18.4669 23.9983 18.5379 24.2503L20.0538 24.0386C21.0022 23.9083 23.1584 23.6279 24.0014 23.1754L22.6143 20.3036C21.7374 18.2588 21.0877 16.1286 20.5616 13.9696C20.4686 13.5879 20.3733 13.203 20.3234 12.8129C20.2276 12.0633 20.8679 12.0698 21.0373 12.4281L21.0537 12.4733C21.0827 12.5566 21.0914 12.6369 21.1134 12.721L21.4672 14.3491L21.9392 16.0537L22.7072 18.3253L23.6895 20.682L24.7269 22.7619C25.1262 22.5739 25.536 22.366 25.6971 21.9276C25.8528 21.504 25.6318 21.1509 25.51 20.7546L24.244 16.4178L22.6305 11.8833L21.2644 8.52729C21.1961 8.37193 21.1339 8.20925 21.0572 8.05816L20.6119 8.07779C20.3074 8.09924 20.0055 8.13841 19.7012 8.15054L10.1119 8.15479C9.78214 8.14441 9.22075 7.99025 8.95107 8.03479Z" fill="black"/>
</svg>
