<svg fill="#000000" version="1.1" id="Capa_1" xmlns="http://www.w3.org/2000/svg" xmlns:xlink="http://www.w3.org/1999/xlink" 
	 width="800px" height="800px" viewBox="0 0 368.898 368.898"
	 xml:space="preserve">
<g>
	<g>
		<path d="M336.675,54.035H305.78V4.369c0-2.409-1.958-4.369-4.365-4.369H193.796c-2.407,0-4.366,1.96-4.366,4.369v193.477H86.367
			c-1.548,0-3.163,0.071-4.836,0.217l-0.193,0.015c-29.989,2.565-53.481,28.165-53.481,58.278c0,23.391,13.809,44.356,35.264,53.669
			c-0.002,0.121-0.004,0.241-0.004,0.364c0,29.93,22.422,54.933,52.113,58.153c1.156,0.164,5.081,0.356,6.397,0.356h180.641
			c21.38,0,38.772-17.396,38.772-38.775V58.403C341.041,55.995,339.083,54.035,336.675,54.035z M198.167,31.374V8.739h98.026v22.635
			H198.167z M302.269,360.162h-17.474c2.128-25.26,22.214-45.012,47.513-46.722v16.682
			C332.308,346.686,318.831,360.162,302.269,360.162z M233.427,85.407V62.772h98.026v22.635H233.427z M121.16,260.621
			c0.155-0.002,0.311-0.004,0.467-0.004h107.431c2.408,0,4.368-1.958,4.368-4.366V94.143h98.881v210.549
			c-29.748,1.743-54.12,25.762-56.28,55.47h-154.4c-0.156,0-0.312-0.002-0.467-0.006V260.621L121.16,260.621z M85.897,206.586
			c0.156-0.003,0.312-0.004,0.47-0.004h107.432c2.409,0,4.368-1.959,4.368-4.367V40.11h98.88v13.925h-67.988
			c-2.408,0-4.367,1.96-4.367,4.369v193.473H121.629c-1.502,0-3.117,0.073-4.838,0.219l-0.192,0.014
			c-11.24,0.961-21.797,5.093-30.701,11.99L85.897,206.586L85.897,206.586z M112.423,261.473v97.833
			c-23.237-4.371-40.57-25.128-40.57-48.915C71.853,286.599,89.186,265.844,112.423,261.473z M77.164,207.44v64.981
			c-6.946,8.12-11.497,17.874-13.237,28.337c-16.663-8.455-27.333-25.69-27.333-44.403C36.594,232.564,53.926,211.809,77.164,207.44
			z"/>
		<path d="M278.538,164.893l-22.673,22.674c-1.702,1.702-1.7,4.473,0.003,6.178l25.762,25.761c0.824,0.825,1.923,1.279,3.088,1.279
			c1.167,0,2.265-0.455,3.085-1.279l25.766-25.761c0.826-0.825,1.28-1.924,1.28-3.09c0-1.168-0.456-2.267-1.28-3.089l-22.676-22.673
			l22.676-22.672c0.824-0.825,1.28-1.922,1.28-3.089s-0.456-2.264-1.28-3.088l-25.766-25.76c-1.647-1.652-4.529-1.65-6.176,0
			l-25.762,25.759c-0.825,0.825-1.28,1.922-1.28,3.089s0.455,2.265,1.28,3.089L278.538,164.893z M284.718,158.716l-19.584-19.583
			l19.584-19.584l19.583,19.584L284.718,158.716z M304.301,190.655l-19.583,19.581l-19.584-19.581l19.584-19.585L304.301,190.655z"
			/>
	</g>
</g>
</svg>