<svg width="30" height="30" viewBox="0 0 30 30" fill="none" xmlns="http://www.w3.org/2000/svg">
<path d="M26.549 25.3388C25.5806 26.4958 24.2964 26.9912 22.8306 27.0762L21.6791 27.0859C20.3504 27.0866 19.5167 26.9212 18.209 26.6289L7.51133 24.4331C7.31826 24.399 6.97147 24.4435 6.80732 24.3431C6.68208 24.2664 6.49602 24.2277 6.35366 24.1886L5.88922 24.0463C4.46618 23.5825 3.26815 22.4689 2.74534 21.0608C2.48816 20.3682 2.4727 19.9597 2.47299 19.236L2.52944 17.2895L2.72649 15.7834C2.76971 15.4809 2.74734 15.154 2.7477 14.8485L2.74459 8.84908C2.7386 8.71118 2.56855 8.49157 2.51274 8.28183L2.49507 8.22087C2.46678 8.14074 2.46138 8.05856 2.45801 7.97416L2.45268 4.4351C2.45275 4.33302 2.44583 4.22249 2.48009 4.12481L2.56157 3.9396C2.73698 3.6113 3.04868 3.42459 3.41372 3.40455C3.90978 3.37572 4.07504 3.82663 4.46182 3.63183C5.6317 3.04264 5.71763 3.81467 6.18638 3.6713L6.21055 3.66362C6.67643 3.52376 6.82224 3.20401 7.429 3.50439C7.86896 3.72218 7.85615 3.73604 8.278 3.5123C8.63164 3.32474 8.95121 3.38105 9.28522 3.55704C9.95026 3.9074 10.1272 3.08969 10.9411 3.51763C11.0982 3.60019 11.2277 3.73153 11.4106 3.68067C11.9858 3.52074 12.0674 3.14217 12.8664 3.59685C13.4313 3.91836 13.6682 3.23917 14.2886 3.43118L14.4137 3.47073C14.6759 3.57022 14.8964 3.79021 14.9888 4.05649L15.0194 4.12522C15.0666 4.22972 15.0527 4.38295 15.0539 4.49665L15.0612 8.10271C15.0487 8.39776 14.8259 8.62862 14.8429 8.90999L14.8685 12.5647C14.8686 12.7602 14.8658 12.948 14.9064 13.1405L14.9313 13.2673C15.0892 14.2085 15.8659 15.1077 16.6571 15.5798C17.2704 15.9458 18.0082 16.101 18.6837 16.3161L23.9812 17.9986C25.2711 18.4232 26.2197 18.9642 26.9314 20.2106C27.205 20.6898 27.3865 21.1873 27.4801 21.7306L27.5332 22.094C27.6438 23.2399 27.2814 24.4539 26.549 25.3388ZM3.50905 4.56262L3.50217 7.57493C3.50196 7.72261 3.48986 7.88061 3.51822 8.02604C3.81301 7.93156 4.12083 7.81549 4.43325 7.89142L4.52164 7.90636L4.4992 4.74465C3.92114 4.82299 3.70224 4.56049 3.50905 4.56262ZM13.9861 4.59192C13.5052 4.78915 13.1464 4.82691 12.673 4.71347C12.6545 4.97354 12.6644 5.2373 12.6642 5.49813L12.6629 7.54692C12.6629 7.77098 12.5777 7.97009 12.795 7.92134L12.9209 7.88638C13.2799 7.781 13.6625 7.93874 13.9977 8.05115C14.0288 7.89766 14.0168 7.7329 14.0171 7.57663L14.0119 4.59192C13.9906 4.59104 13.9992 4.5904 13.9861 4.59192ZM5.55172 4.67981L5.55506 7.98828C5.85503 7.90598 6.05073 7.85331 6.36436 7.90771L6.41454 4.74336L6.38771 4.75109C6.12901 4.82067 5.81319 4.76319 5.56558 4.67715L5.55172 4.67981ZM7.45716 4.67592L7.46308 7.94489C7.59834 7.87379 7.87938 7.86684 8.01963 7.89579L8.07822 7.90759L8.13055 7.91712C8.15398 7.73366 8.14388 7.54174 8.14411 7.35678V5.38633C8.14391 5.17323 8.1534 4.95465 8.13491 4.74242L8.11452 4.74599C7.87965 4.78461 7.67911 4.75027 7.45716 4.67592ZM10.7851 4.66264L10.778 7.55849C10.7785 8.07901 10.6982 7.96803 11.1431 7.90469C11.2999 7.88237 11.4598 7.89517 11.6165 7.91108L11.6306 4.72718C11.3263 4.77113 11.075 4.77796 10.7851 4.66264ZM9.18767 4.70911L9.18644 7.60458C9.18652 7.72223 9.17642 7.85076 9.19177 7.96707L9.20346 7.96191C9.35568 7.89828 9.52651 7.88527 9.68955 7.88996L9.74507 7.89966L9.73792 4.74441C9.604 4.74541 9.25525 4.70357 9.18767 4.70911ZM4.28703 8.93931C4.08113 8.97435 3.95144 9.06632 3.78084 9.18093L3.77744 15.004C6.07859 15.4277 7.93481 16.8754 8.54803 19.2152C8.87516 20.4634 8.62051 21.7494 8.13348 22.9207L7.92863 23.4155L18.4185 25.5789C19.674 25.8782 20.4213 26.0198 21.6881 26.0186C23.2123 26.0172 24.5987 25.935 25.6684 24.7415C26.9436 23.2006 26.7218 21.0265 25.1754 19.7551C24.5216 19.2175 23.6625 19.0171 22.8735 18.7647L17.4328 17.0428C17.1603 16.957 16.88 16.8785 16.6187 16.7621C15.1929 16.1274 14.1639 14.8473 13.8798 13.3171C13.7958 12.8645 13.8281 12.421 13.8279 11.9623V9.30977C13.828 8.96917 13.1878 8.90471 12.929 8.96884C12.6724 9.03242 12.4237 9.50152 11.9377 9.2305C11.6714 9.08205 11.5706 8.87797 11.2019 8.96697C11.0434 9.00523 10.9455 9.13338 10.8119 9.21277C10.2313 9.55777 10.0396 8.81841 9.50056 8.96586C9.35188 9.00652 9.25423 9.13478 9.1257 9.20958C8.57565 9.52959 8.30012 8.80329 7.76577 8.96653C7.33982 9.09667 7.22457 9.60922 6.54966 9.08641C6.38454 8.9585 6.17401 8.90404 5.96885 8.96706C5.60659 9.07833 5.3837 9.61338 4.78379 9.10077C4.64768 8.98446 4.46381 8.9334 4.28703 8.93931ZM3.75875 16.0952C3.68744 16.4493 3.64982 16.8143 3.61127 17.1734L3.50237 19.1177C3.50188 19.4086 3.50044 19.676 3.54764 19.9626C3.8353 21.7092 5.20171 22.8157 6.83431 23.2246L7.01656 22.8136C7.28398 22.2279 7.53292 21.6076 7.61891 20.9649C7.87268 19.0685 6.64745 17.2357 4.94697 16.4637C4.56544 16.2904 4.16601 16.1865 3.75875 16.0952Z" fill="black"/>
</svg>
