<svg width="30" height="30" viewBox="0 0 30 30" fill="none" xmlns="http://www.w3.org/2000/svg">
<path d="M24.5261 26.0955C23.6133 27.2292 22.7586 27.1751 21.4929 27.1752L7.86859 27.1751C6.36595 27.1736 5.26949 26.4261 4.97746 24.8608C4.9118 24.5091 4.94684 24.1112 4.94681 23.7538L4.94345 11.5901C4.94189 10.977 5.11609 10.9166 5.56263 10.5104C6.86339 9.32719 6.95049 7.703 6.74066 6.04328L6.67551 5.58876C6.6245 5.32143 6.55943 5.05773 6.68295 4.79825L6.6942 4.77528C6.91313 4.32238 8.04276 3.82547 8.48831 3.56725L9.26315 3.11453C9.47511 2.98829 9.65412 2.83383 9.90733 2.80199C10.6421 2.76508 11.3094 3.2964 11.3944 4.03571C11.4217 4.27234 11.4323 4.50625 11.4849 4.73986C11.7071 5.72734 12.4775 6.60121 13.1973 7.26496C14.6698 8.62272 15.2484 8.67484 16.7154 7.34998C17.5397 6.60554 18.4098 5.57784 18.5675 4.43394C18.5959 4.22775 18.5978 4.01898 18.6499 3.81581C18.8002 3.23013 19.5658 2.63242 20.1915 2.81746C20.3344 2.85974 20.4671 2.9635 20.5959 3.038L22.4301 4.07772C22.9928 4.38501 23.5493 4.65915 23.3589 5.43973C23.0774 6.59397 23.1186 8.49408 23.636 9.53505C23.8183 9.90188 24.1277 10.2534 24.4407 10.52C24.7837 10.812 25.0502 10.9511 25.0601 11.4373L25.06 24.6195C25.0552 24.768 25.0326 24.9436 24.9899 25.086L24.9719 25.1512C24.8944 25.4981 24.7257 25.8056 24.5261 26.0955ZM10.0033 3.74019C9.83254 3.77054 9.79688 3.78042 9.85008 3.95042L9.92424 4.18275C10.0336 4.52661 10.0341 4.89607 10.1668 5.25868L10.5907 6.26664C10.6548 6.41075 10.7601 6.55459 10.8455 6.68763C11.5317 7.75659 13.5693 9.77608 14.9339 9.84299C16.0297 9.89675 17.5252 8.56155 18.2068 7.84149C18.8414 7.17115 19.365 6.45903 19.6866 5.58554L20.0135 4.36002C20.0742 4.02654 20.3081 3.71248 19.9035 3.73524C19.4671 3.75979 19.509 4.18445 19.4781 4.46075C19.2672 6.35001 16.9647 9.04386 15.1527 9.23716C14.4566 9.31143 13.7016 8.88106 13.1803 8.4557C12.0529 7.53569 10.6858 6.13465 10.5494 4.59203C10.523 4.29276 10.5588 3.94418 10.2464 3.78293L10.2294 3.77403C10.1582 3.73829 10.0815 3.73383 10.0033 3.74019ZM20.9473 4.31045L20.8812 4.69694C20.5573 6.38482 19.6465 7.81972 18.3854 8.97991C17.46 9.8313 15.8831 11.0068 14.5836 10.7236C12.8302 10.3414 10.9551 8.5612 10.0333 7.11903C9.61137 6.45894 9.35034 5.76513 9.16943 5.00699L9.09446 4.6111C9.08177 4.5228 9.07682 4.41578 9.04073 4.33372L7.5165 5.15637C7.56721 5.40499 7.5927 5.66001 7.62136 5.91194L7.70441 7.38452C7.70327 8.92703 7.23754 10.311 6.02939 11.3023C5.81101 11.4815 5.84514 11.3893 5.84479 11.6794L5.84386 18.0687L5.84353 20.8307C5.84356 20.9488 5.83334 21.0203 5.9476 21.0936L5.98331 21.1219C6.04805 21.1731 6.11986 21.2309 6.20503 21.2345L23.0588 21.2376C23.3848 21.2381 23.789 21.3209 24.0536 21.0863L24.0726 21.0697C24.107 21.039 24.1315 21.015 24.1523 20.9737L24.1573 14.1136C24.1572 13.769 24.1741 11.4502 24.1379 11.4089C24.1024 11.3682 24.0176 11.331 23.9714 11.2971C22.9721 10.5639 22.4561 9.3196 22.335 8.11512C22.2927 7.69457 22.2649 6.40615 22.348 6.00118L22.486 5.15453C22.3447 5.05395 22.1791 4.98311 22.0259 4.90219L21.36 4.53712C21.2252 4.46312 21.0765 4.39202 20.9473 4.31045ZM5.84561 22.058L5.84444 22.8022L24.1528 22.8016C24.1624 22.7736 24.1589 22.7576 24.1559 22.7288C24.1565 22.5102 24.1782 22.2712 24.1506 22.0614C24.0252 22.1174 23.873 22.1571 23.7368 22.1624L6.49384 22.163C6.27039 22.1594 6.05347 22.1487 5.84561 22.058ZM6.33803 23.7232C6.18358 23.7247 5.99696 23.7089 5.84635 23.7365L5.84517 24.619L23.749 24.6205L24.1675 24.6195L24.1662 23.7284L6.33803 23.7232ZM6.34243 25.5341L6.25501 25.5614C6.44218 25.8935 6.84645 26.1103 7.20253 26.2069L7.22573 26.213C7.41218 26.2629 7.57764 26.2592 7.77018 26.2601L21.7656 26.2606C22.3141 26.2603 22.7223 26.3077 23.2187 26.0243L23.3678 25.9351C23.5306 25.8163 23.6499 25.6988 23.7824 25.5481L6.34243 25.5341Z" fill="black"/>
</svg>
