<svg width="30" height="30" viewBox="0 0 30 30" fill="none" xmlns="http://www.w3.org/2000/svg">
<path d="M14.6177 17.4727C14.5919 17.6034 14.5817 17.7331 14.5613 17.8642L13.542 24.8067C13.4386 25.4168 13.5237 25.3505 12.8097 25.4491C12.5448 25.4856 12.2793 25.4776 12.0125 25.4777C10.9492 25.4779 9.90181 25.4164 8.899 25.0132C8.65062 24.9134 8.36808 24.8225 8.31854 24.5211L8.31517 24.5C8.30436 24.434 8.30123 24.3208 8.34096 24.2637C8.46573 24.0845 8.49432 22.8093 8.51762 22.527L8.86666 17.4211L9.03013 14.729C9.04021 14.5438 9.0793 14.3646 9.08829 14.1816L9.11879 12.2025C9.16326 10.6718 9.30828 9.19498 9.93116 7.77856C10.2454 7.06401 10.6438 6.38432 10.6205 5.58056C10.6111 5.25323 10.507 4.9651 10.6759 4.6522C10.9993 4.05294 11.597 4.11065 12.1737 4.11051L17.9527 4.11053C18.1438 4.10804 18.3741 4.0832 18.5608 4.11795C19.0205 4.20349 19.4109 4.59484 19.4218 5.07182C19.4358 5.68003 19.2903 5.7959 19.5123 6.4897L19.6147 6.76814C19.669 6.9349 19.7618 7.09085 19.8315 7.25142L20.105 7.85977C20.2662 8.18904 20.3395 8.55874 20.458 8.90342L20.513 9.10512C20.7461 9.80678 20.8117 10.6227 20.8433 11.3617L20.8881 12.9911C20.8937 13.0901 20.9151 13.1865 20.9183 13.2849L20.9236 14.3488C20.9283 14.4559 20.9523 14.56 20.9598 14.6665L20.9821 15.3109C20.9884 15.4252 21.0117 15.537 21.0174 15.6523L21.1009 17.2452C21.1089 17.3281 21.1263 17.4088 21.1318 17.4926L21.2587 19.5489L21.5886 23.9213C21.6004 24.0253 21.5807 24.1183 21.6365 24.2125L21.6956 24.3232C21.7425 24.4205 21.6939 24.6201 21.6328 24.7105C21.5365 24.8532 21.3332 24.9 21.1815 24.9616C19.8991 25.4827 18.48 25.586 17.1119 25.4269C16.5949 25.3668 16.5383 25.3655 16.4662 24.8442L14.9994 14.8872C14.9477 15.0524 14.9347 15.2203 14.9123 15.3912L14.6177 17.4727ZM13.2286 4.90466L12.1211 4.90624C11.8717 4.90674 11.6094 4.88983 11.3635 4.93521C11.3526 5.03262 11.3367 5.15227 11.3576 5.24837C11.6279 5.3572 11.9493 5.46549 12.2387 5.50398C12.3547 5.51942 12.4682 5.48257 12.5817 5.4925C12.9462 5.52437 13.3069 5.51907 13.6734 5.51919L16.7718 5.5191L17.4208 5.51635C17.823 5.51353 18.2459 5.46806 18.6067 5.27318C18.6949 4.76318 18.2925 4.907 17.8739 4.90594L13.2286 4.90466ZM11.3468 6.10096C11.1961 7.11842 10.6975 7.75758 10.4066 8.68061C10.5765 8.6253 10.7201 8.54002 10.8696 8.44395C11.3033 8.13458 11.52 7.75861 11.6968 7.26789L12.0214 6.23151C11.7977 6.1943 11.5641 6.16785 11.3468 6.10096ZM18.6194 6.1278L18.2642 6.19685C18.0359 6.23585 17.9306 6.17866 18.0061 6.39982L18.2239 7.12463C18.3446 7.60606 18.7193 8.22115 19.1376 8.47126C19.2873 8.55405 19.4179 8.62445 19.5836 8.66828C19.3102 7.82488 18.7428 7.03184 18.6693 6.12968C18.6341 6.11699 18.6508 6.11623 18.6194 6.1278ZM12.7702 6.31665L12.5443 7.15307C12.2345 8.25086 11.543 9.34003 10.3217 9.49293C10.3052 9.49498 10.1964 9.50125 10.1899 9.5067C10.132 9.55536 9.97349 10.7036 9.96101 10.8291L9.93614 11.2196C9.91848 11.4224 9.89003 11.6254 9.8827 11.8291L9.87453 13.5809C9.87511 14.0598 9.78632 14.4395 9.78002 14.889L9.77026 15.4912C9.76458 15.6721 9.73496 15.8492 9.72142 16.0294L9.67317 16.8111L9.31408 21.9353L9.19698 23.5258C9.18037 23.7691 9.18227 24.0119 9.15529 24.2547C9.43742 24.4421 10.1735 24.5697 10.5028 24.6091L10.9164 24.642C11.2368 24.6924 12.4449 24.7207 12.7941 24.6602L14.2586 14.6791C14.3802 13.8326 14.4729 13.2025 14.4738 12.3512L14.4814 6.31844L12.7702 6.31665ZM15.2531 6.31665C15.2073 6.64627 15.2275 6.97785 15.2274 7.29496L15.2288 10.3736C15.229 10.6314 15.2077 10.9127 15.2487 11.1671C15.3659 11.0744 15.4684 10.9697 15.5578 10.8499C15.8422 10.4772 15.8652 10.1803 15.8657 9.73378L15.8575 6.33566L15.2531 6.31665ZM16.6891 6.32145L16.6348 6.3436C16.6159 6.44303 16.6266 6.55943 16.6266 6.66121L16.6253 10.0526C16.6239 10.8143 16.1998 11.5057 15.5565 11.9073L15.3765 12.0371C15.3992 12.148 15.4043 12.2599 15.4204 12.3713L15.7921 14.9711C15.8624 15.3593 15.8791 15.7634 15.9643 16.1484L17.2337 24.6399C17.4396 24.6404 17.6386 24.6687 17.8436 24.6755C18.3305 24.6918 18.9915 24.6733 19.4805 24.5912C19.986 24.5005 20.3849 24.437 20.8612 24.2442L20.4445 18.5928L20.2164 15.0304C20.207 14.8441 20.1693 14.6614 20.1578 14.474L20.1422 13.4212C20.1399 13.3077 20.1184 13.1963 20.1163 13.0825L20.1106 12.0319C20.1097 11.8526 20.1154 11.6693 20.1011 11.4905L20.064 11.1974C20.0301 10.819 19.9655 9.84654 19.8071 9.5127C18.0215 9.22354 17.5651 7.85333 17.2227 6.3209L16.6891 6.32145Z" fill="black"/>
</svg>
