<svg width="30" height="30" viewBox="0 0 30 30" fill="none" xmlns="http://www.w3.org/2000/svg">
<path d="M15.8969 24.4997L15.1471 23.4554C14.7419 23.812 14.3575 24.2081 13.9825 24.5963C13.2298 25.3754 13.1743 25.4764 11.9612 25.4742C10.8954 25.4722 9.85451 25.281 8.94291 24.7054C8.0693 24.1538 8.51488 23.12 8.65489 22.3162L9.24935 19.2085C9.31155 18.8026 9.31322 18.4042 9.34099 17.9962L9.39721 17.0536C9.40667 16.9171 9.4324 16.7831 9.43773 16.6461L9.44602 15.8787C9.46433 15.1659 9.47857 14.9462 9.33534 14.2201L6.03668 21.8113C5.69901 22.5946 5.54854 23.1316 4.55599 23.3547L4.33911 23.386C3.52832 23.4577 2.61381 23.1261 1.88913 22.7916C0.719594 22.2517 0.968565 21.7982 1.45973 20.7206L6.99466 7.99203C7.30662 7.23608 7.53121 6.50685 8.53656 6.42679C8.76496 6.40859 8.99488 6.42831 9.22357 6.41753C10.3418 6.36488 11.3005 5.71247 12.0783 4.95459C12.506 4.53793 12.3391 4.51736 13.0449 4.50415L16.9112 4.50301C17.655 4.50157 17.4547 4.51502 17.9949 5.02118C18.7505 5.72931 19.6397 6.35407 20.7055 6.40742C21.0843 6.42635 21.4816 6.36321 21.8409 6.50287C22.4548 6.74158 22.6926 7.2093 22.9195 7.7813L28.1917 19.9295C28.3052 20.1517 28.387 20.3973 28.4873 20.6265L28.7751 21.2794C28.8807 21.5381 28.972 21.8082 28.8943 22.0907C28.6712 22.9014 26.4385 23.4167 25.7233 23.3829C25.6224 23.3782 25.5144 23.379 25.4168 23.3505L25.2979 23.3172C24.3785 23.0284 24.1695 22.3509 23.8287 21.5492L20.7874 14.5017C20.7516 14.4172 20.7219 14.3269 20.6794 14.2457C20.4668 14.8793 20.5278 15.4829 20.552 16.1277L20.5747 16.9041C20.5818 17.0082 20.6034 17.111 20.6088 17.2158L20.6233 17.9441C20.6352 18.174 20.66 18.564 20.6881 18.7832L21.1777 21.4928C21.2329 21.7584 21.2697 22.0303 21.3285 22.2947L21.5107 23.2542C21.5523 23.4665 21.6338 23.7329 21.5858 23.95L21.582 23.9664C21.3352 25.2058 18.979 25.4732 17.9981 25.4744C16.9214 25.4759 16.5475 25.3106 15.8969 24.4997ZM15.7712 5.40274L13.289 5.42782C13.3755 5.61022 13.4296 5.83338 13.4893 6.02759L13.6607 6.55859C13.7082 6.70042 13.7473 6.84787 13.8001 6.98706L14.3799 8.74402C14.4209 8.84885 14.4498 8.96058 14.4875 9.06714L14.737 9.79224C14.756 9.84359 14.766 9.89987 14.7877 9.94971L14.8543 10.1658C14.9871 10.5223 14.9472 10.7437 15.1106 10.2443L16.1872 6.96509C16.3579 6.45166 16.4968 5.90132 16.7311 5.4137C16.4178 5.37887 16.0865 5.40145 15.7712 5.40274ZM17.5146 5.80786L16.3484 9.29419L15.3934 12.5095L14.9992 14.1428C14.7991 14.9976 14.8097 15.3142 14.8092 16.1886L14.8098 19.4051C14.8101 19.9718 14.8323 20.5933 15.0243 21.1351L15.4879 22.3057C15.7997 22.961 16.3045 23.5976 16.7909 24.1299C17.2724 24.6567 17.4346 24.565 18.1626 24.5602C18.4711 24.5582 18.7826 24.5361 19.0869 24.4824C19.566 24.3979 20.3602 24.1982 20.7068 23.8148C20.6985 23.6129 20.6387 23.4219 20.5998 23.2249L19.8234 19.052C19.7827 18.7938 19.762 18.5089 19.7574 18.2468L19.6454 16.2165L19.6375 15.488C19.6366 14.6249 19.7272 14.2087 19.9951 13.3622L20.1437 12.9252C20.2147 12.7241 20.2913 12.4783 20.5356 12.4372L20.5703 12.4317C20.9111 12.3802 21.0162 12.7258 21.109 12.9783L21.2581 13.3405L22.4593 16.1104C22.4929 16.1883 22.5346 16.2653 22.5617 16.3456L24.9754 21.9437C25.0405 22.0997 25.1636 22.2352 25.3052 22.325L25.3258 22.3385C25.9295 22.7309 27.4597 22.1523 28.0233 21.8096C27.9436 21.5648 27.8298 21.3301 27.7264 21.0945L22.1737 8.30612C21.9202 7.69575 21.9232 7.32556 21.1672 7.32696L20.6978 7.32597C19.8979 7.30335 19.0284 6.9408 18.3798 6.49889C18.2689 6.42333 17.5441 5.8131 17.5146 5.80786ZM12.4746 5.81668C11.4139 6.76765 10.3245 7.34568 8.88929 7.33194C8.57951 7.32895 8.30623 7.32046 8.11647 7.62427L4.63155 15.6039L2.11432 21.4487C2.06917 21.5528 1.9954 21.6772 1.97484 21.7859C2.42736 22.1451 3.71781 22.5517 4.22438 22.493L4.45 22.4432C4.9837 22.3106 5.13361 21.6601 5.32108 21.2273L8.76613 13.2674L8.95137 12.8323C9.05353 12.5851 9.20886 12.2969 9.55615 12.4598C9.68453 12.52 9.73709 12.6233 9.78068 12.7508L10.2185 14.1339C10.3231 14.4555 10.3487 14.845 10.3572 15.1829L10.3485 16.2241L10.2427 17.7595C10.2228 18.2026 10.222 18.6459 10.165 19.0867C10.0766 19.7697 9.92441 20.4445 9.79052 21.1195L9.3513 23.3962C9.309 23.6226 9.21833 23.794 9.43339 23.9411C10.1604 24.4383 11.082 24.5599 11.9417 24.5615C12.763 24.5631 12.7151 24.6098 13.2432 24.0653L14.1237 23.1702C14.2925 23.0016 14.4653 22.8016 14.6655 22.6711C14.0941 21.4784 13.913 20.5799 13.9124 19.2922L13.9128 16.3556C13.9131 15.69 13.9077 15.0554 14.0255 14.3993L14.4892 12.4143C14.5623 12.1178 14.5844 12.0576 14.4807 11.779L12.6095 6.23017C12.5628 6.09277 12.5264 5.95218 12.4746 5.81668Z" fill="black"/>
<path d="M15.8224 17.3325L15.6731 17.3282C15.4348 17.2989 15.2078 17.0281 15.2567 16.7839L15.2609 16.765C15.3068 16.5523 15.47 16.4516 15.675 16.409C16.3089 16.38 16.4355 17.1575 15.8224 17.3325Z" fill="black"/>
<path d="M15.8251 19.2099C15.5998 19.2311 15.3592 19.1465 15.2928 18.9049L15.2879 18.8863C15.2591 18.7877 15.2512 18.7041 15.2841 18.6049L15.3141 18.5267C15.3909 18.382 15.5254 18.3242 15.6742 18.2834C16.2907 18.2481 16.4411 19.0383 15.8251 19.2099Z" fill="black"/>
</svg>
